<?xml version="1.0" encoding="UTF-8" standalone="no"?><svg xmlns="http://www.w3.org/2000/svg" xmlns:xlink="http://www.w3.org/1999/xlink" contentStyleType="text/css" height="805px" preserveAspectRatio="none" style="width:519px;height:805px;background:#FFFFFF;" version="1.1" viewBox="0 0 519 805" width="519px" zoomAndPan="magnify"><defs/><g><!--MD5=[99b31deea5d7419a569cd5090bf83263]
cluster System--><g id="cluster_System"><rect fill="none" height="792" rx="2.5" ry="2.5" style="stroke:#181818;stroke-width:1.0;" width="312" x="85" y="7"/><text fill="#000000" font-family="sans-serif" font-size="14" font-weight="bold" lengthAdjust="spacing" textLength="50" x="216" y="23.5332">System</text></g><g id="elem_wuc1"><ellipse cx="241.234" cy="142.9517" fill="#F1F1F1" rx="36.234" ry="15.4517" style="stroke:#181818;stroke-width:0.5;"/><text fill="#000000" font-family="sans-serif" font-size="14" lengthAdjust="spacing" textLength="35" x="223.734" y="146.6802">Login</text></g><g id="elem_wuc2"><ellipse cx="241.1002" cy="361.02" fill="#F1F1F1" rx="75.6002" ry="17.52" style="stroke:#181818;stroke-width:0.5;"/><text fill="#000000" font-family="sans-serif" font-size="14" lengthAdjust="spacing" textLength="103" x="186.6002" y="365.5366">Tilslut IoT til hub</text></g><g id="elem_wuc3"><ellipse cx="241.1965" cy="434.2393" fill="#F1F1F1" rx="91.6965" ry="20.7393" style="stroke:#181818;stroke-width:0.5;"/><text fill="#000000" font-family="sans-serif" font-size="14" lengthAdjust="spacing" textLength="142" x="170.1965" y="437.9678">Tænd / sluk IoT enhed</text></g><g id="elem_wuc4"><ellipse cx="241.1904" cy="510.9381" fill="#F1F1F1" rx="95.1904" ry="21.4381" style="stroke:#181818;stroke-width:0.5;"/><text fill="#000000" font-family="sans-serif" font-size="14" lengthAdjust="spacing" textLength="150" x="166.1904" y="514.6666">Fjern IoT enhed fra hub</text></g><g id="elem_wuc5"><ellipse cx="240.9267" cy="586.7853" fill="#F1F1F1" rx="84.4267" ry="19.2853" style="stroke:#181818;stroke-width:0.5;"/><text fill="#000000" font-family="sans-serif" font-size="14" lengthAdjust="spacing" textLength="125" x="178.4267" y="590.5139">Sæt timer pr. enhed</text></g><g id="elem_wuc6"><ellipse cx="241.1681" cy="664.2336" fill="#F1F1F1" rx="99.1681" ry="22.2336" style="stroke:#181818;stroke-width:0.5;"/><text fill="#000000" font-family="sans-serif" font-size="14" lengthAdjust="spacing" textLength="159" x="161.6681" y="667.9621">Se overblik for IoT enhed</text></g><g id="elem_wuc7"><ellipse cx="240.7783" cy="751.8557" fill="#F1F1F1" rx="139.7783" ry="30.3557" style="stroke:#181818;stroke-width:0.5;"/><text fill="#000000" font-family="sans-serif" font-size="14" lengthAdjust="spacing" textLength="247" x="117.2783" y="755.5842">Sæt tænd / sluk ud fra forbrugsmønster</text></g><g id="elem_wuc8"><ellipse cx="241.097" cy="212.1194" fill="#F1F1F1" rx="81.097" ry="18.6194" style="stroke:#181818;stroke-width:0.5;"/><text fill="#000000" font-family="sans-serif" font-size="14" lengthAdjust="spacing" textLength="117" x="182.0843" y="215.9982">Opret bruger profil</text></g><g id="elem_wuc9"><ellipse cx="241.0017" cy="287.0003" fill="#F1F1F1" rx="93.0017" ry="21.0003" style="stroke:#181818;stroke-width:0.5;"/><text fill="#000000" font-family="sans-serif" font-size="14" lengthAdjust="spacing" textLength="145" x="168.5017" y="290.7289">Tilføj hub under bruger</text></g><g id="elem_wuc10"><ellipse cx="240.847" cy="68.1694" fill="#F1F1F1" rx="111.347" ry="24.6694" style="stroke:#181818;stroke-width:0.5;"/><text fill="#000000" font-family="sans-serif" font-size="14" lengthAdjust="spacing" textLength="186" x="147.847" y="71.8979">Få pris overblik for el-selskab</text></g><!--MD5=[979c31051cf8d07bdf927ed864b836ec]
entity cl--><g id="elem_cl"><ellipse cx="23.5" cy="367.5" fill="#F1F1F1" rx="8" ry="8" style="stroke:#181818;stroke-width:0.5;"/><path d="M23.5,375.5 L23.5,402.5 M10.5,383.5 L36.5,383.5 M23.5,402.5 L10.5,417.5 M23.5,402.5 L36.5,417.5 " fill="none" style="stroke:#181818;stroke-width:0.5;"/><text fill="#000000" font-family="sans-serif" font-size="14" lengthAdjust="spacing" textLength="35" x="6" y="433.5332">Klient</text></g><!--MD5=[e2307af040e3f87d22824e7603ca28ec]
entity api--><g id="elem_api"><ellipse cx="476.5" cy="112.5" fill="#F1F1F1" rx="8" ry="8" style="stroke:#181818;stroke-width:0.5;"/><path d="M476.5,120.5 L476.5,147.5 M463.5,128.5 L489.5,128.5 M476.5,147.5 L463.5,162.5 M476.5,147.5 L489.5,162.5 " fill="none" style="stroke:#181818;stroke-width:0.5;"/><text fill="#000000" font-family="sans-serif" font-size="14" lengthAdjust="spacing" textLength="71" x="441" y="178.5332">XPower Api</text></g><!--MD5=[7c0dd979139b9740918e346e8c1a7d60]
entity hub--><g id="elem_hub"><ellipse cx="476.5" cy="480.5" fill="#F1F1F1" rx="8" ry="8" style="stroke:#181818;stroke-width:0.5;"/><path d="M476.5,488.5 L476.5,515.5 M463.5,496.5 L489.5,496.5 M476.5,515.5 L463.5,530.5 M476.5,515.5 L489.5,530.5 " fill="none" style="stroke:#181818;stroke-width:0.5;"/><text fill="#000000" font-family="sans-serif" font-size="14" lengthAdjust="spacing" textLength="25" x="464" y="546.5332">Hub</text></g><!--MD5=[c2cb498c6c36c174602f09b39a00b94c]
link cl to wuc1--><g id="link_cl_wuc1"><path d="M28.69,358.89 C35.58,302.14 51.18,201 77,176 C109.53,144.51 163.35,139.22 200.19,139.84 " fill="none" id="cl-to-wuc1" style="stroke:#181818;stroke-width:1.0;"/><polygon fill="#181818" points="205.49,139.97,196.5958,135.74,200.4917,139.8415,196.3902,143.7373,205.49,139.97" style="stroke:#181818;stroke-width:1.0;"/></g><!--MD5=[63bf1a1eeb78e006cdb305a4692e64ef]
link cl to wuc2--><g id="link_cl_wuc2"><path d="M41.05,395.16 C69.29,390.31 128.24,380.19 174.68,372.22 " fill="none" id="cl-to-wuc2" style="stroke:#181818;stroke-width:1.0;"/><polygon fill="#181818" points="179.7,371.35,170.1545,368.9243,174.7715,372.1928,171.5031,376.8099,179.7,371.35" style="stroke:#181818;stroke-width:1.0;"/></g><!--MD5=[12d2cb071791fb2a9ad66c8500734741]
link cl to wuc3--><g id="link_cl_wuc3"><path d="M41.05,400.77 C66.77,405.06 117.95,413.61 161.96,420.96 " fill="none" id="cl-to-wuc3" style="stroke:#181818;stroke-width:1.0;"/><polygon fill="#181818" points="167.01,421.81,158.7977,416.3733,162.0792,420.9811,157.4714,424.2625,167.01,421.81" style="stroke:#181818;stroke-width:1.0;"/></g><!--MD5=[d6911184a3d8e2932033becfca6fa557]
link cl to wuc4--><g id="link_cl_wuc4"><path d="M41.08,431.39 C49.87,445.89 61.99,461.86 77,472 C98.25,486.36 124.18,495.45 149.06,501.21 " fill="none" id="cl-to-wuc4" style="stroke:#181818;stroke-width:1.0;"/><polygon fill="#181818" points="154.02,502.31,146.1184,496.4309,149.1421,501.2118,144.3612,504.2355,154.02,502.31" style="stroke:#181818;stroke-width:1.0;"/></g><!--MD5=[b04817a6e4b21b3832931c0c2c03f9e0]
link cl to wuc5--><g id="link_cl_wuc5"><path d="M27.57,437.16 C32.41,471.81 44.88,521.21 77,550 C97.55,568.41 125.32,578.25 152.11,583.35 " fill="none" id="cl-to-wuc5" style="stroke:#181818;stroke-width:1.0;"/><polygon fill="#181818" points="157.1,584.25,148.9522,578.7171,152.1793,583.3631,147.5332,586.5902,157.1,584.25" style="stroke:#181818;stroke-width:1.0;"/></g><!--MD5=[237111e04d0c3374a9334320a2950574]
link cl to wuc6--><g id="link_cl_wuc6"><path d="M28.67,437.2 C35.57,494.7 51.24,597.92 77,624 C93.82,641.03 116.63,651.25 139.86,657.28 " fill="none" id="cl-to-wuc6" style="stroke:#181818;stroke-width:1.0;"/><polygon fill="#181818" points="144.82,658.5,137.0254,652.4797,139.9626,657.3142,135.1281,660.2515,144.82,658.5" style="stroke:#181818;stroke-width:1.0;"/></g><!--MD5=[716044bef3347b3becf269b5e7d0f9d4]
link cl to wuc7--><g id="link_cl_wuc7"><path d="M26.18,437.13 C30.11,510.55 42.38,665.09 77,704 C88.37,716.78 102.96,726.24 118.72,733.21 " fill="none" id="cl-to-wuc7" style="stroke:#181818;stroke-width:1.0;"/><polygon fill="#181818" points="123.65,735.3,116.9344,728.0958,119.0491,733.3425,113.8024,735.4572,123.65,735.3" style="stroke:#181818;stroke-width:1.0;"/></g><!--MD5=[c66faadd4a82ea90308309e5cde96f42]
link cl to wuc8--><g id="link_cl_wuc8"><path d="M27.73,358.97 C32.67,324.75 45.22,276.2 77,248 C98.33,229.08 127.33,219.38 154.97,214.62 " fill="none" id="cl-to-wuc8" style="stroke:#181818;stroke-width:1.0;"/><polygon fill="#181818" points="160.11,213.78,150.5854,211.2737,155.1746,214.5811,151.8672,219.1703,160.11,213.78" style="stroke:#181818;stroke-width:1.0;"/></g><!--MD5=[adbab9d9151c3c40b70fade5c7813640]
link cl to wuc9--><g id="link_cl_wuc9"><path d="M41.03,365.88 C49.89,351.67 62.07,335.95 77,326 C98.79,311.48 125.41,302.35 150.76,296.61 " fill="none" id="cl-to-wuc9" style="stroke:#181818;stroke-width:1.0;"/><polygon fill="#181818" points="155.81,295.51,146.1676,293.5038,150.9231,296.5674,147.8595,301.3229,155.81,295.51" style="stroke:#181818;stroke-width:1.0;"/></g><!--MD5=[bf0f7b19c1b3f76250232923b4edd70b]
link cl to wuc10--><g id="link_cl_wuc10"><path d="M26.52,358.88 C30.95,288.73 43.89,145.58 77,110 C91.47,94.45 110.86,84.35 131.21,77.85 " fill="none" id="cl-to-wuc10" style="stroke:#181818;stroke-width:1.0;"/><polygon fill="#181818" points="136.12,76.35,126.3441,75.1531,131.338,77.8104,128.6807,82.8042,136.12,76.35" style="stroke:#181818;stroke-width:1.0;"/></g><!--MD5=[5c245b6bce6090c4fdca654d2b99b88c]
link wuc1 to api--><g id="link_wuc1_api"><path d="M277.21,143 C321.42,143 396.78,143 440.77,143 " fill="none" id="wuc1-api" style="stroke:#181818;stroke-width:1.0;"/></g><!--MD5=[621b0cc47e7ac7c98db62289c40116ec]
link wuc8 to api--><g id="link_wuc8_api"><path d="M306.76,201.1 C337.03,195.15 373.31,186.77 405,176 C417.03,171.91 429.73,166.38 440.98,161.01 " fill="none" id="wuc8-api" style="stroke:#181818;stroke-width:1.0;"/></g><!--MD5=[fd2ab96d1a2e4a623bd9bd64754f9395]
link wuc10 to api--><g id="link_wuc10_api"><path d="M320.83,85.18 C347.85,91.89 378.05,100.31 405,110 C416.95,114.3 429.64,119.89 440.9,125.24 " fill="none" id="wuc10-api" style="stroke:#181818;stroke-width:1.0;"/></g><!--MD5=[6afdc88f53923bb764f51da5e5f1284b]
link wuc2 to hub--><g id="link_wuc2_hub"><path d="M315.22,364.21 C345.27,368.55 379.02,377.6 405,396 C432.81,415.69 451.78,450.15 462.98,476.23 " fill="none" id="wuc2-hub" style="stroke:#181818;stroke-width:1.0;"/></g><!--MD5=[ffe425b1b2e03b7ee9ae2d9bc0530b57]
link wuc3 to hub--><g id="link_wuc3_hub"><path d="M314.29,446.38 C343.05,452.45 376.12,460.89 405,472 C426.28,480.18 449.04,493.76 462.77,502.54 " fill="none" id="wuc3-hub" style="stroke:#181818;stroke-width:1.0;"/></g><!--MD5=[24402709176f9c1e8502bb9f0c9281d3]
link wuc4 to hub--><g id="link_wuc4_hub"><path d="M336.3,511 C384.9,511 438.9,511 462.86,511 " fill="none" id="wuc4-hub" style="stroke:#181818;stroke-width:1.0;"/></g><!--MD5=[e315ed780b57737dec09da2c7d86ab56]
link wuc5 to hub--><g id="link_wuc5_hub"><path d="M310.67,575.88 C340.26,569.96 374.9,561.47 405,550 C426.3,541.88 449.06,528.29 462.78,519.49 " fill="none" id="wuc5-hub" style="stroke:#181818;stroke-width:1.0;"/></g><!--MD5=[f984f64664ce6d7d73a7a0291485021c]
link wuc6 to hub--><g id="link_wuc6_hub"><path d="M331.51,654.86 C357.02,649 383.64,639.47 405,624 C432.44,604.13 451.56,570 462.9,544.43 " fill="none" id="wuc6-hub" style="stroke:#181818;stroke-width:1.0;"/></g><!--MD5=[5527aa804c0a6af0537ebbd31f1d4188]
link wuc7 to hub--><g id="link_wuc7_hub"><path d="M354.62,733.94 C373.09,726.96 390.8,717.32 405,704 C448.32,663.36 465.11,593.95 471.56,550.37 " fill="none" id="wuc7-hub" style="stroke:#181818;stroke-width:1.0;"/></g><!--MD5=[d56c0ddf15da47657a4083308bcb6f9e]
link wuc9 to hub--><g id="link_wuc9_hub"><path d="M330.95,292.49 C357.31,298 384.56,308.04 405,326 C447.61,363.43 464.58,429.46 471.26,471.68 " fill="none" id="wuc9-hub" style="stroke:#181818;stroke-width:1.0;"/></g><!--MD5=[361eaf4527052cca796d0c91823ee1fc]
@startuml Use case
left to right direction
skinparam packageStyle rectangle

:Klient: as cl
:XPower Api: as api
:Hub: as hub

rectangle System {
    usecase "Login" as wuc1
    usecase "Tilslut IoT til hub" as wuc2
    usecase "Tænd / sluk IoT enhed" as wuc3
    usecase "Fjern IoT enhed fra hub" as wuc4
    usecase "Sæt timer pr. enhed" as wuc5
    usecase "Se overblik for IoT enhed" as wuc6
    usecase "Sæt tænd / sluk ud fra forbrugsmønster" as wuc7
    usecase "Opret bruger profil" as wuc8
    usecase "Tilføj hub under bruger" as wuc9
    usecase "Få pris overblik for el-selskab" as wuc10
}

cl - -> wuc1
cl - -> wuc2
cl - -> wuc3
cl - -> wuc4
cl - -> wuc5
cl - -> wuc6
cl - -> wuc7
cl - -> wuc8
cl - -> wuc9
cl - -> wuc10

wuc1 - - api
wuc8 - - api
wuc10 - - api

wuc2 - - hub
wuc3 - - hub
wuc4 - - hub
wuc5 - - hub
wuc6 - - hub
wuc7 - - hub
wuc9 - - hub

@enduml

PlantUML version 1.2022.7(Mon Aug 22 19:01:30 CEST 2022)
(GPL source distribution)
Java Runtime: Java(TM) SE Runtime Environment
JVM: Java HotSpot(TM) 64-Bit Server VM
Default Encoding: Cp1252
Language: en
Country: US
--></g></svg>