<?xml version="1.0" encoding="UTF-8" standalone="no"?><svg xmlns="http://www.w3.org/2000/svg" xmlns:xlink="http://www.w3.org/1999/xlink" contentStyleType="text/css" height="312px" preserveAspectRatio="none" style="width:422px;height:312px;background:#FFFFFF;" version="1.1" viewBox="0 0 422 312" width="422px" zoomAndPan="magnify"><defs/><g><!--MD5=[99b31deea5d7419a569cd5090bf83263]
cluster System--><g id="cluster_System"><rect fill="none" height="298" rx="2.5" ry="2.5" style="stroke:#181818;stroke-width:1.0;" width="215" x="85" y="7"/><text fill="#000000" font-family="sans-serif" font-size="14" font-weight="bold" lengthAdjust="spacing" textLength="50" x="167.5" y="23.5332">System</text></g><g id="elem_wuc1"><ellipse cx="192.734" cy="130.9517" fill="#F1F1F1" rx="36.234" ry="15.4517" style="stroke:#181818;stroke-width:0.5;"/><text fill="#000000" font-family="sans-serif" font-size="14" lengthAdjust="spacing" textLength="35" x="175.234" y="134.6802">Login</text></g><g id="elem_wuc2"><ellipse cx="192.2696" cy="196.9517" fill="#F1F1F1" rx="39.7696" ry="15.4517" style="stroke:#181818;stroke-width:0.5;"/><text fill="#000000" font-family="sans-serif" font-size="14" lengthAdjust="spacing" textLength="40" x="172.2696" y="200.6802">Logud</text></g><g id="elem_wuc3"><ellipse cx="192.6965" cy="268.2393" fill="#F1F1F1" rx="91.6965" ry="20.7393" style="stroke:#181818;stroke-width:0.5;"/><text fill="#000000" font-family="sans-serif" font-size="14" lengthAdjust="spacing" textLength="142" x="121.6965" y="271.9678">Tænd / sluk IoT enhed</text></g><g id="elem_wuc4"><ellipse cx="192.597" cy="62.1194" fill="#F1F1F1" rx="81.097" ry="18.6194" style="stroke:#181818;stroke-width:0.5;"/><text fill="#000000" font-family="sans-serif" font-size="14" lengthAdjust="spacing" textLength="117" x="133.5843" y="65.9982">Opret bruger profil</text></g><!--MD5=[979c31051cf8d07bdf927ed864b836ec]
entity cl--><g id="elem_cl"><ellipse cx="23.5" cy="133.5" fill="#F1F1F1" rx="8" ry="8" style="stroke:#181818;stroke-width:0.5;"/><path d="M23.5,141.5 L23.5,168.5 M10.5,149.5 L36.5,149.5 M23.5,168.5 L10.5,183.5 M23.5,168.5 L36.5,183.5 " fill="none" style="stroke:#181818;stroke-width:0.5;"/><text fill="#000000" font-family="sans-serif" font-size="14" lengthAdjust="spacing" textLength="35" x="6" y="199.5332">Klient</text></g><!--MD5=[e2307af040e3f87d22824e7603ca28ec]
entity api--><g id="elem_api"><ellipse cx="379.5" cy="100.5" fill="#F1F1F1" rx="8" ry="8" style="stroke:#181818;stroke-width:0.5;"/><path d="M379.5,108.5 L379.5,135.5 M366.5,116.5 L392.5,116.5 M379.5,135.5 L366.5,150.5 M379.5,135.5 L392.5,150.5 " fill="none" style="stroke:#181818;stroke-width:0.5;"/><text fill="#000000" font-family="sans-serif" font-size="14" lengthAdjust="spacing" textLength="71" x="344" y="166.5332">XPower Api</text></g><!--MD5=[7c0dd979139b9740918e346e8c1a7d60]
entity hub--><g id="elem_hub"><ellipse cx="379.5" cy="237.5" fill="#F1F1F1" rx="8" ry="8" style="stroke:#181818;stroke-width:0.5;"/><path d="M379.5,245.5 L379.5,272.5 M366.5,253.5 L392.5,253.5 M379.5,272.5 L366.5,287.5 M379.5,272.5 L392.5,287.5 " fill="none" style="stroke:#181818;stroke-width:0.5;"/><text fill="#000000" font-family="sans-serif" font-size="14" lengthAdjust="spacing" textLength="25" x="367" y="303.5332">Hub</text></g><!--MD5=[c2cb498c6c36c174602f09b39a00b94c]
link cl to wuc1--><g id="link_cl_wuc1"><path d="M41.12,160.72 C67.39,155.53 119.13,145.3 154.51,138.31 " fill="none" id="cl-to-wuc1" style="stroke:#181818;stroke-width:1.0;"/><polygon fill="#181818" points="159.6,137.3,149.994,135.1266,154.6955,138.2723,151.5497,142.9738,159.6,137.3" style="stroke:#181818;stroke-width:1.0;"/></g><!--MD5=[63bf1a1eeb78e006cdb305a4692e64ef]
link cl to wuc2--><g id="link_cl_wuc2"><path d="M41.12,167.28 C66.6,172.32 116.05,182.09 151.29,189.05 " fill="none" id="cl-to-wuc2" style="stroke:#181818;stroke-width:1.0;"/><polygon fill="#181818" points="156.38,190.06,148.3265,184.3906,151.4749,189.0904,146.7752,192.2388,156.38,190.06" style="stroke:#181818;stroke-width:1.0;"/></g><!--MD5=[12d2cb071791fb2a9ad66c8500734741]
link cl to wuc3--><g id="link_cl_wuc3"><path d="M41.01,191.57 C50.16,204.81 62.6,219.94 77,230 C90.38,239.35 106.23,246.52 121.8,251.99 " fill="none" id="cl-to-wuc3" style="stroke:#181818;stroke-width:1.0;"/><polygon fill="#181818" points="126.62,253.63,119.395,246.9368,121.8881,252.0146,116.8103,254.5078,126.62,253.63" style="stroke:#181818;stroke-width:1.0;"/></g><!--MD5=[d6911184a3d8e2932033becfca6fa557]
link cl to wuc4--><g id="link_cl_wuc4"><path d="M41.17,136 C50.28,122.82 62.64,107.86 77,98 C91.4,88.11 108.65,80.84 125.33,75.53 " fill="none" id="cl-to-wuc4" style="stroke:#181818;stroke-width:1.0;"/><polygon fill="#181818" points="130.49,73.94,120.7119,72.7616,125.7108,75.4094,123.063,80.4083,130.49,73.94" style="stroke:#181818;stroke-width:1.0;"/></g><!--MD5=[5c245b6bce6090c4fdca654d2b99b88c]
link wuc1 to api--><g id="link_wuc1_api"><path d="M228.73,131 C261.76,131 310.83,131 343.71,131 " fill="none" id="wuc1-api" style="stroke:#181818;stroke-width:1.0;"/></g><!--MD5=[36c0bb9d52bf99ecaf469df1a7c1cfc0]
link wuc2 to api--><g id="link_wuc2_api"><path d="M226.77,188.89 C249.86,182.9 281.18,174.07 308,164 C319.89,159.53 332.56,153.9 343.82,148.55 " fill="none" id="wuc2-api" style="stroke:#181818;stroke-width:1.0;"/></g><!--MD5=[26c010de099ca9ca4053142d2b097052]
link wuc4 to api--><g id="link_wuc4_api"><path d="M244.16,76.34 C264.25,82.44 287.42,89.99 308,98 C319.84,102.61 332.49,108.28 343.76,113.62 " fill="none" id="wuc4-api" style="stroke:#181818;stroke-width:1.0;"/></g><!--MD5=[ffe425b1b2e03b7ee9ae2d9bc0530b57]
link wuc3 to hub--><g id="link_wuc3_hub"><path d="M284.1,268 C316.15,268 348.49,268 365.75,268 " fill="none" id="wuc3-hub" style="stroke:#181818;stroke-width:1.0;"/></g><!--MD5=[d42336a67a92bf85f282575177d96054]
@startuml Use case
left to right direction
skinparam packageStyle rectangle

:Klient: as cl
:XPower Api: as api
:Hub: as hub

rectangle System {
    usecase "Login" as wuc1
    usecase "Logud" as wuc2
    usecase "Tænd / sluk IoT enhed" as wuc3
    usecase "Opret bruger profil" as wuc4
}

cl - -> wuc1
cl - -> wuc2
cl - -> wuc3
cl - -> wuc4

wuc1 - - api
wuc2 - - api
wuc4 - - api

wuc3 - - hub

@enduml

PlantUML version 1.2022.7(Mon Aug 22 19:01:30 CEST 2022)
(GPL source distribution)
Java Runtime: Java(TM) SE Runtime Environment
JVM: Java HotSpot(TM) 64-Bit Server VM
Default Encoding: Cp1252
Language: en
Country: US
--></g></svg>