<?xml version="1.0" encoding="UTF-8" standalone="no"?><svg xmlns="http://www.w3.org/2000/svg" xmlns:xlink="http://www.w3.org/1999/xlink" contentStyleType="text/css" height="469px" preserveAspectRatio="none" style="width:3375px;height:469px;background:#FFFFFF;" version="1.1" viewBox="0 0 3375 469" width="3375px" zoomAndPan="magnify"><defs/><g><g id="elem_n1"><path d="M6,89.5 L6,148.5547 L422,148.5547 L422,99.5 L412,89.5 L6,89.5 " fill="#FEFFDD" style="stroke:#181818;stroke-width:0.5;"/><path d="M412,89.5 L412,99.5 L422,99.5 L412,89.5 " fill="#FEFFDD" style="stroke:#181818;stroke-width:1.0;"/><text fill="#000000" font-family="sans-serif" font-size="13" lengthAdjust="spacing" textLength="395" x="12" y="107.9951">SocketDeviceRequestConverter will not have implementations shown</text><text fill="#000000" font-family="sans-serif" font-size="13" lengthAdjust="spacing" textLength="194" x="12" y="124.3467">MqttService is a third party library</text><text fill="#000000" font-family="sans-serif" font-size="13" lengthAdjust="spacing" textLength="225" x="12" y="140.6982">Dto's will not be shown in this diagram.</text></g><!--MD5=[34ea5e9e36643e922bdff05f56a7400c]
class IoTDevice--><g id="elem_IoTDevice"><rect codeLine="4" fill="#F1F1F1" height="100.8281" id="IoTDevice" rx="2.5" ry="2.5" style="stroke:#181818;stroke-width:0.5;" width="154" x="1135" y="326"/><ellipse cx="1176.55" cy="342" fill="#B4A7E5" rx="11" ry="11" style="stroke:#181818;stroke-width:1.0;"/><path d="M1177.5031,338.6406 L1177.5031,345.2969 L1179.2219,345.2969 Q1179.8313,345.2969 1180.0969,345.5313 Q1180.3625,345.7656 1180.3625,346.1563 Q1180.3625,346.5313 1180.0969,346.7656 Q1179.8313,347 1179.2219,347 L1174.0813,347 Q1173.4719,347 1173.2063,346.7656 Q1172.9406,346.5313 1172.9406,346.1406 Q1172.9406,345.7656 1173.2063,345.5313 Q1173.4719,345.2969 1174.0813,345.2969 L1175.8,345.2969 L1175.8,338.6406 L1174.0813,338.6406 Q1173.4719,338.6406 1173.2063,338.4063 Q1172.9406,338.1719 1172.9406,337.7813 Q1172.9406,337.4063 1173.2063,337.1719 Q1173.4719,336.9375 1174.0813,336.9375 L1179.2219,336.9375 Q1179.8313,336.9375 1180.0969,337.1719 Q1180.3625,337.4063 1180.3625,337.7813 Q1180.3625,338.1719 1180.0969,338.4063 Q1179.8313,338.6406 1179.2219,338.6406 L1177.5031,338.6406 Z " fill="#000000"/><text fill="#000000" font-family="sans-serif" font-size="14" font-style="italic" lengthAdjust="spacing" textLength="63" x="1196.45" y="347.7285">IoTDevice</text><line style="stroke:#181818;stroke-width:0.5;" x1="1136" x2="1288" y1="358" y2="358"/><ellipse cx="1146" cy="372.3047" fill="none" rx="3" ry="3" style="stroke:#038048;stroke-width:1.0;"/><text fill="#000000" font-family="sans-serif" font-size="14" lengthAdjust="spacing" textLength="78" x="1155" y="376.5332">name: string</text><ellipse cx="1146" cy="389.9141" fill="none" rx="3" ry="3" style="stroke:#038048;stroke-width:1.0;"/><text fill="#000000" font-family="sans-serif" font-size="14" lengthAdjust="spacing" textLength="97" x="1155" y="394.1426">status: boolean</text><ellipse cx="1146" cy="407.5234" fill="none" rx="3" ry="3" style="stroke:#038048;stroke-width:1.0;"/><text fill="#000000" font-family="sans-serif" font-size="14" lengthAdjust="spacing" textLength="128" x="1155" y="411.752">mac_address: string</text><line style="stroke:#181818;stroke-width:0.5;" x1="1136" x2="1288" y1="418.8281" y2="418.8281"/></g><!--MD5=[fc539fa3f3b7db9b31467e896d367b3b]
class Device--><g id="elem_Device"><rect codeLine="10" fill="#F1F1F1" height="83.2188" id="Device" rx="2.5" ry="2.5" style="stroke:#181818;stroke-width:0.5;" width="104" x="457" y="77.5"/><ellipse cx="485.05" cy="93.5" fill="#ADD1B2" rx="11" ry="11" style="stroke:#181818;stroke-width:1.0;"/><path d="M487.8156,89.375 Q487.9719,89.1563 488.1594,89.0469 Q488.3469,88.9375 488.5656,88.9375 Q488.9406,88.9375 489.175,89.1953 Q489.4094,89.4531 489.4094,90.0625 L489.4094,91.5156 Q489.4094,92.125 489.175,92.3906 Q488.9406,92.6563 488.5656,92.6563 Q488.2219,92.6563 488.0188,92.4531 Q487.8156,92.2656 487.7063,91.75 Q487.6594,91.3906 487.4719,91.2031 Q487.1438,90.8281 486.5344,90.6094 Q485.925,90.3906 485.3,90.3906 Q484.5344,90.3906 483.9016,90.7188 Q483.2688,91.0469 482.7766,91.7969 Q482.2844,92.5469 482.2844,93.5781 L482.2844,94.6719 Q482.2844,95.9063 483.175,96.7266 Q484.0656,97.5469 485.6594,97.5469 Q486.5969,97.5469 487.2531,97.2969 Q487.6438,97.1406 488.0656,96.7031 Q488.3313,96.4375 488.4797,96.3594 Q488.6281,96.2813 488.8313,96.2813 Q489.1594,96.2813 489.4172,96.5391 Q489.675,96.7969 489.675,97.1406 Q489.675,97.4844 489.3313,97.8906 Q488.8313,98.4688 488.0344,98.7969 Q486.9563,99.25 485.6594,99.25 Q484.1438,99.25 482.9406,98.625 Q481.9563,98.125 481.2688,97.0547 Q480.5813,95.9844 480.5813,94.7031 L480.5813,93.5469 Q480.5813,92.2188 481.1984,91.0703 Q481.8156,89.9219 482.9094,89.3047 Q484.0031,88.6875 485.2375,88.6875 Q485.9719,88.6875 486.6203,88.8516 Q487.2688,89.0156 487.8156,89.375 Z " fill="#000000"/><text fill="#000000" font-family="sans-serif" font-size="14" lengthAdjust="spacing" textLength="43" x="501.95" y="99.2285">Device</text><line style="stroke:#181818;stroke-width:0.5;" x1="458" x2="560" y1="109.5" y2="109.5"/><ellipse cx="468" cy="123.8047" fill="none" rx="3" ry="3" style="stroke:#038048;stroke-width:1.0;"/><text fill="#000000" font-family="sans-serif" font-size="14" lengthAdjust="spacing" textLength="54" x="477" y="128.0332">id: string</text><ellipse cx="468" cy="141.4141" fill="none" rx="3" ry="3" style="stroke:#038048;stroke-width:1.0;"/><text fill="#000000" font-family="sans-serif" font-size="14" lengthAdjust="spacing" textLength="78" x="477" y="145.6426">name: string</text><line style="stroke:#181818;stroke-width:0.5;" x1="458" x2="560" y1="152.7188" y2="152.7188"/></g><!--MD5=[60fb7c891b2aee9e3ad3bc3b3dc71a45]
class HubDevice--><g id="elem_HubDevice"><rect codeLine="15" fill="#F1F1F1" height="48" id="HubDevice" rx="2.5" ry="2.5" style="stroke:#181818;stroke-width:0.5;" width="100" x="1002" y="95"/><ellipse cx="1017" cy="111" fill="#ADD1B2" rx="11" ry="11" style="stroke:#181818;stroke-width:1.0;"/><path d="M1019.7656,106.875 Q1019.9219,106.6563 1020.1094,106.5469 Q1020.2969,106.4375 1020.5156,106.4375 Q1020.8906,106.4375 1021.125,106.6953 Q1021.3594,106.9531 1021.3594,107.5625 L1021.3594,109.0156 Q1021.3594,109.625 1021.125,109.8906 Q1020.8906,110.1563 1020.5156,110.1563 Q1020.1719,110.1563 1019.9688,109.9531 Q1019.7656,109.7656 1019.6563,109.25 Q1019.6094,108.8906 1019.4219,108.7031 Q1019.0938,108.3281 1018.4844,108.1094 Q1017.875,107.8906 1017.25,107.8906 Q1016.4844,107.8906 1015.8516,108.2188 Q1015.2188,108.5469 1014.7266,109.2969 Q1014.2344,110.0469 1014.2344,111.0781 L1014.2344,112.1719 Q1014.2344,113.4063 1015.125,114.2266 Q1016.0156,115.0469 1017.6094,115.0469 Q1018.5469,115.0469 1019.2031,114.7969 Q1019.5938,114.6406 1020.0156,114.2031 Q1020.2813,113.9375 1020.4297,113.8594 Q1020.5781,113.7813 1020.7813,113.7813 Q1021.1094,113.7813 1021.3672,114.0391 Q1021.625,114.2969 1021.625,114.6406 Q1021.625,114.9844 1021.2813,115.3906 Q1020.7813,115.9688 1019.9844,116.2969 Q1018.9063,116.75 1017.6094,116.75 Q1016.0938,116.75 1014.8906,116.125 Q1013.9063,115.625 1013.2188,114.5547 Q1012.5313,113.4844 1012.5313,112.2031 L1012.5313,111.0469 Q1012.5313,109.7188 1013.1484,108.5703 Q1013.7656,107.4219 1014.8594,106.8047 Q1015.9531,106.1875 1017.1875,106.1875 Q1017.9219,106.1875 1018.5703,106.3516 Q1019.2188,106.5156 1019.7656,106.875 Z " fill="#000000"/><text fill="#000000" font-family="sans-serif" font-size="14" lengthAdjust="spacing" textLength="68" x="1031" y="116.7285">HubDevice</text><line style="stroke:#181818;stroke-width:0.5;" x1="1003" x2="1101" y1="127" y2="127"/><line style="stroke:#181818;stroke-width:0.5;" x1="1003" x2="1101" y1="135" y2="135"/></g><!--MD5=[73ff7e9848ef61b5ec4d2f879d00ed7f]
class SocketDevice--><g id="elem_SocketDevice"><rect codeLine="18" fill="#F1F1F1" height="100.8281" id="SocketDevice" rx="2.5" ry="2.5" style="stroke:#181818;stroke-width:0.5;" width="150" x="1137" y="68.5"/><ellipse cx="1166.4" cy="84.5" fill="#ADD1B2" rx="11" ry="11" style="stroke:#181818;stroke-width:1.0;"/><path d="M1169.1656,80.375 Q1169.3219,80.1563 1169.5094,80.0469 Q1169.6969,79.9375 1169.9156,79.9375 Q1170.2906,79.9375 1170.525,80.1953 Q1170.7594,80.4531 1170.7594,81.0625 L1170.7594,82.5156 Q1170.7594,83.125 1170.525,83.3906 Q1170.2906,83.6563 1169.9156,83.6563 Q1169.5719,83.6563 1169.3688,83.4531 Q1169.1656,83.2656 1169.0563,82.75 Q1169.0094,82.3906 1168.8219,82.2031 Q1168.4938,81.8281 1167.8844,81.6094 Q1167.275,81.3906 1166.65,81.3906 Q1165.8844,81.3906 1165.2516,81.7188 Q1164.6188,82.0469 1164.1266,82.7969 Q1163.6344,83.5469 1163.6344,84.5781 L1163.6344,85.6719 Q1163.6344,86.9063 1164.525,87.7266 Q1165.4156,88.5469 1167.0094,88.5469 Q1167.9469,88.5469 1168.6031,88.2969 Q1168.9938,88.1406 1169.4156,87.7031 Q1169.6813,87.4375 1169.8297,87.3594 Q1169.9781,87.2813 1170.1813,87.2813 Q1170.5094,87.2813 1170.7672,87.5391 Q1171.025,87.7969 1171.025,88.1406 Q1171.025,88.4844 1170.6813,88.8906 Q1170.1813,89.4688 1169.3844,89.7969 Q1168.3063,90.25 1167.0094,90.25 Q1165.4938,90.25 1164.2906,89.625 Q1163.3063,89.125 1162.6188,88.0547 Q1161.9313,86.9844 1161.9313,85.7031 L1161.9313,84.5469 Q1161.9313,83.2188 1162.5484,82.0703 Q1163.1656,80.9219 1164.2594,80.3047 Q1165.3531,79.6875 1166.5875,79.6875 Q1167.3219,79.6875 1167.9703,79.8516 Q1168.6188,80.0156 1169.1656,80.375 Z " fill="#000000"/><text fill="#000000" font-family="sans-serif" font-size="14" lengthAdjust="spacing" textLength="86" x="1183.6" y="90.2285">SocketDevice</text><line style="stroke:#181818;stroke-width:0.5;" x1="1138" x2="1286" y1="100.5" y2="100.5"/><ellipse cx="1148" cy="114.8047" fill="none" rx="3" ry="3" style="stroke:#038048;stroke-width:1.0;"/><text fill="#000000" font-family="sans-serif" font-size="14" lengthAdjust="spacing" textLength="124" x="1157" y="119.0332">turned_on: boolean</text><ellipse cx="1148" cy="132.4141" fill="none" rx="3" ry="3" style="stroke:#038048;stroke-width:1.0;"/><text fill="#000000" font-family="sans-serif" font-size="14" lengthAdjust="spacing" textLength="80" x="1157" y="136.6426">group: string</text><ellipse cx="1148" cy="150.0234" fill="none" rx="3" ry="3" style="stroke:#038048;stroke-width:1.0;"/><text fill="#000000" font-family="sans-serif" font-size="14" lengthAdjust="spacing" textLength="112" x="1157" y="154.252">parent: IoTDevice</text><line style="stroke:#181818;stroke-width:0.5;" x1="1138" x2="1286" y1="161.3281" y2="161.3281"/></g><!--MD5=[daa2b68c2ccd11ade04004a7970669d1]
class IoTService--><g id="elem_IoTService"><rect codeLine="24" fill="#F1F1F1" height="153.6563" id="IoTService" rx="2.5" ry="2.5" style="stroke:#181818;stroke-width:0.5;" width="575" x="1322.5" y="42"/><ellipse cx="1572.25" cy="58" fill="#ADD1B2" rx="11" ry="11" style="stroke:#181818;stroke-width:1.0;"/><path d="M1575.0156,53.875 Q1575.1719,53.6563 1575.3594,53.5469 Q1575.5469,53.4375 1575.7656,53.4375 Q1576.1406,53.4375 1576.375,53.6953 Q1576.6094,53.9531 1576.6094,54.5625 L1576.6094,56.0156 Q1576.6094,56.625 1576.375,56.8906 Q1576.1406,57.1563 1575.7656,57.1563 Q1575.4219,57.1563 1575.2188,56.9531 Q1575.0156,56.7656 1574.9063,56.25 Q1574.8594,55.8906 1574.6719,55.7031 Q1574.3438,55.3281 1573.7344,55.1094 Q1573.125,54.8906 1572.5,54.8906 Q1571.7344,54.8906 1571.1016,55.2188 Q1570.4688,55.5469 1569.9766,56.2969 Q1569.4844,57.0469 1569.4844,58.0781 L1569.4844,59.1719 Q1569.4844,60.4063 1570.375,61.2266 Q1571.2656,62.0469 1572.8594,62.0469 Q1573.7969,62.0469 1574.4531,61.7969 Q1574.8438,61.6406 1575.2656,61.2031 Q1575.5313,60.9375 1575.6797,60.8594 Q1575.8281,60.7813 1576.0313,60.7813 Q1576.3594,60.7813 1576.6172,61.0391 Q1576.875,61.2969 1576.875,61.6406 Q1576.875,61.9844 1576.5313,62.3906 Q1576.0313,62.9688 1575.2344,63.2969 Q1574.1563,63.75 1572.8594,63.75 Q1571.3438,63.75 1570.1406,63.125 Q1569.1563,62.625 1568.4688,61.5547 Q1567.7813,60.4844 1567.7813,59.2031 L1567.7813,58.0469 Q1567.7813,56.7188 1568.3984,55.5703 Q1569.0156,54.4219 1570.1094,53.8047 Q1571.2031,53.1875 1572.4375,53.1875 Q1573.1719,53.1875 1573.8203,53.3516 Q1574.4688,53.5156 1575.0156,53.875 Z " fill="#000000"/><text fill="#000000" font-family="sans-serif" font-size="14" lengthAdjust="spacing" textLength="67" x="1592.75" y="63.7285">IoTService</text><line style="stroke:#181818;stroke-width:0.5;" x1="1323.5" x2="1896.5" y1="74" y2="74"/><line style="stroke:#181818;stroke-width:0.5;" x1="1323.5" x2="1896.5" y1="82" y2="82"/><ellipse cx="1333.5" cy="96.3047" fill="#84BE84" rx="3" ry="3" style="stroke:#038048;stroke-width:1.0;"/><text fill="#000000" font-family="sans-serif" font-size="14" lengthAdjust="spacing" textLength="351" x="1342.5" y="100.5332">GetSocketDevicesFromHub(hubIdenfitifer : string) : void</text><ellipse cx="1333.5" cy="113.9141" fill="#84BE84" rx="3" ry="3" style="stroke:#038048;stroke-width:1.0;"/><text fill="#000000" font-family="sans-serif" font-size="14" lengthAdjust="spacing" textLength="208" x="1342.5" y="118.1426">GetDevices() : Array&lt;IoTDevice&gt;</text><rect fill="#F24D5C" height="6" style="stroke:#C82930;stroke-width:1.0;" width="6" x="1330.5" y="128.5234"/><text fill="#000000" font-family="sans-serif" font-size="14" lengthAdjust="spacing" textLength="391" x="1342.5" y="135.752">GetFilteredDevices&lt;T extends IoTDevice&gt;(type: T) : Array&lt;T&gt;</text><rect fill="#F24D5C" height="6" style="stroke:#C82930;stroke-width:1.0;" width="6" x="1330.5" y="146.1328"/><text fill="#000000" font-family="sans-serif" font-size="14" lengthAdjust="spacing" textLength="265" x="1342.5" y="153.3613">GetDeviceById(clientId: string) : IoTDevice</text><rect fill="#F24D5C" height="6" style="stroke:#C82930;stroke-width:1.0;" width="6" x="1330.5" y="163.7422"/><text fill="#000000" font-family="sans-serif" font-size="14" lengthAdjust="spacing" textLength="549" x="1342.5" y="170.9707">OnSocketStatusResponse(status: DeviceStatusResponse&lt;SocketDeviceStatus&gt;) : void</text><rect fill="#F24D5C" height="6" style="stroke:#C82930;stroke-width:1.0;" width="6" x="1330.5" y="181.3516"/><text fill="#000000" font-family="sans-serif" font-size="14" lengthAdjust="spacing" textLength="291" x="1342.5" y="188.5801">OnIoTStatusResponse(message: string) : void</text></g><!--MD5=[72fc5309462af0cb4113f0a663401831]
class MqttClientService--><g id="elem_MqttClientService"><rect codeLine="33" fill="#F1F1F1" height="118.4375" id="MqttClientService" rx="2.5" ry="2.5" style="stroke:#181818;stroke-width:0.5;" width="490" x="1418" y="317.5"/><ellipse cx="1603.75" cy="333.5" fill="#ADD1B2" rx="11" ry="11" style="stroke:#181818;stroke-width:1.0;"/><path d="M1606.5156,329.375 Q1606.6719,329.1563 1606.8594,329.0469 Q1607.0469,328.9375 1607.2656,328.9375 Q1607.6406,328.9375 1607.875,329.1953 Q1608.1094,329.4531 1608.1094,330.0625 L1608.1094,331.5156 Q1608.1094,332.125 1607.875,332.3906 Q1607.6406,332.6563 1607.2656,332.6563 Q1606.9219,332.6563 1606.7188,332.4531 Q1606.5156,332.2656 1606.4063,331.75 Q1606.3594,331.3906 1606.1719,331.2031 Q1605.8438,330.8281 1605.2344,330.6094 Q1604.625,330.3906 1604,330.3906 Q1603.2344,330.3906 1602.6016,330.7188 Q1601.9688,331.0469 1601.4766,331.7969 Q1600.9844,332.5469 1600.9844,333.5781 L1600.9844,334.6719 Q1600.9844,335.9063 1601.875,336.7266 Q1602.7656,337.5469 1604.3594,337.5469 Q1605.2969,337.5469 1605.9531,337.2969 Q1606.3438,337.1406 1606.7656,336.7031 Q1607.0313,336.4375 1607.1797,336.3594 Q1607.3281,336.2813 1607.5313,336.2813 Q1607.8594,336.2813 1608.1172,336.5391 Q1608.375,336.7969 1608.375,337.1406 Q1608.375,337.4844 1608.0313,337.8906 Q1607.5313,338.4688 1606.7344,338.7969 Q1605.6563,339.25 1604.3594,339.25 Q1602.8438,339.25 1601.6406,338.625 Q1600.6563,338.125 1599.9688,337.0547 Q1599.2813,335.9844 1599.2813,334.7031 L1599.2813,333.5469 Q1599.2813,332.2188 1599.8984,331.0703 Q1600.5156,329.9219 1601.6094,329.3047 Q1602.7031,328.6875 1603.9375,328.6875 Q1604.6719,328.6875 1605.3203,328.8516 Q1605.9688,329.0156 1606.5156,329.375 Z " fill="#000000"/><text fill="#000000" font-family="sans-serif" font-size="14" lengthAdjust="spacing" textLength="110" x="1624.25" y="339.2285">MqttClientService</text><line style="stroke:#181818;stroke-width:0.5;" x1="1419" x2="1907" y1="349.5" y2="349.5"/><rect fill="none" height="6" style="stroke:#C82930;stroke-width:1.0;" width="6" x="1426" y="360.8047"/><text fill="#000000" font-family="sans-serif" font-size="14" lengthAdjust="spacing" textLength="115" x="1438" y="368.0332">client: MqttService</text><line style="stroke:#181818;stroke-width:0.5;" x1="1419" x2="1907" y1="375.1094" y2="375.1094"/><ellipse cx="1429" cy="389.4141" fill="#84BE84" rx="3" ry="3" style="stroke:#038048;stroke-width:1.0;"/><text fill="#000000" font-family="sans-serif" font-size="14" lengthAdjust="spacing" textLength="253" x="1438" y="393.6426">Publish(target: string, data: string) : void</text><ellipse cx="1429" cy="407.0234" fill="#84BE84" rx="3" ry="3" style="stroke:#038048;stroke-width:1.0;"/><text fill="#000000" font-family="sans-serif" font-size="14" lengthAdjust="spacing" textLength="464" x="1438" y="411.252">Subscribe(target: string, onMessageFunc: (message : string) : void) : void</text><rect fill="#F24D5C" height="6" style="stroke:#C82930;stroke-width:1.0;" width="6" x="1426" y="421.6328"/><text fill="#000000" font-family="sans-serif" font-size="14" lengthAdjust="spacing" textLength="240" x="1438" y="428.8613">CreateOptions() : IMqttServiceOptions</text></g><!--MD5=[90ecfadb9f5de79fdadebdad7ca16777]
class SocketDeviceService--><g id="elem_SocketDeviceService"><rect codeLine="41" fill="#F1F1F1" height="136.0469" id="SocketDeviceService" rx="2.5" ry="2.5" style="stroke:#181818;stroke-width:0.5;" width="361" x="1932.5" y="51"/><ellipse cx="2042.25" cy="67" fill="#ADD1B2" rx="11" ry="11" style="stroke:#181818;stroke-width:1.0;"/><path d="M2045.0156,62.875 Q2045.1719,62.6563 2045.3594,62.5469 Q2045.5469,62.4375 2045.7656,62.4375 Q2046.1406,62.4375 2046.375,62.6953 Q2046.6094,62.9531 2046.6094,63.5625 L2046.6094,65.0156 Q2046.6094,65.625 2046.375,65.8906 Q2046.1406,66.1563 2045.7656,66.1563 Q2045.4219,66.1563 2045.2188,65.9531 Q2045.0156,65.7656 2044.9063,65.25 Q2044.8594,64.8906 2044.6719,64.7031 Q2044.3438,64.3281 2043.7344,64.1094 Q2043.125,63.8906 2042.5,63.8906 Q2041.7344,63.8906 2041.1016,64.2188 Q2040.4688,64.5469 2039.9766,65.2969 Q2039.4844,66.0469 2039.4844,67.0781 L2039.4844,68.1719 Q2039.4844,69.4063 2040.375,70.2266 Q2041.2656,71.0469 2042.8594,71.0469 Q2043.7969,71.0469 2044.4531,70.7969 Q2044.8438,70.6406 2045.2656,70.2031 Q2045.5313,69.9375 2045.6797,69.8594 Q2045.8281,69.7813 2046.0313,69.7813 Q2046.3594,69.7813 2046.6172,70.0391 Q2046.875,70.2969 2046.875,70.6406 Q2046.875,70.9844 2046.5313,71.3906 Q2046.0313,71.9688 2045.2344,72.2969 Q2044.1563,72.75 2042.8594,72.75 Q2041.3438,72.75 2040.1406,72.125 Q2039.1563,71.625 2038.4688,70.5547 Q2037.7813,69.4844 2037.7813,68.2031 L2037.7813,67.0469 Q2037.7813,65.7188 2038.3984,64.5703 Q2039.0156,63.4219 2040.1094,62.8047 Q2041.2031,62.1875 2042.4375,62.1875 Q2043.1719,62.1875 2043.8203,62.3516 Q2044.4688,62.5156 2045.0156,62.875 Z " fill="#000000"/><text fill="#000000" font-family="sans-serif" font-size="14" lengthAdjust="spacing" textLength="133" x="2062.75" y="72.7285">SocketDeviceService</text><line style="stroke:#181818;stroke-width:0.5;" x1="1933.5" x2="2292.5" y1="83" y2="83"/><rect fill="none" height="6" style="stroke:#C82930;stroke-width:1.0;" width="6" x="1940.5" y="94.3047"/><text fill="#000000" font-family="sans-serif" font-size="14" lengthAdjust="spacing" textLength="321" x="1952.5" y="101.5332">requestConverter: SocketDeviceRequestConverter</text><rect fill="none" height="6" style="stroke:#C82930;stroke-width:1.0;" width="6" x="1940.5" y="111.9141"/><text fill="#000000" font-family="sans-serif" font-size="14" lengthAdjust="spacing" textLength="261" x="1952.5" y="119.1426">mqttService {readonly}: MqttClientService</text><line style="stroke:#181818;stroke-width:0.5;" x1="1933.5" x2="2292.5" y1="126.2188" y2="126.2188"/><ellipse cx="1943.5" cy="140.5234" fill="#84BE84" rx="3" ry="3" style="stroke:#038048;stroke-width:1.0;"/><text fill="#000000" font-family="sans-serif" font-size="14" lengthAdjust="spacing" textLength="335" x="1952.5" y="144.752">SocketDeviceService(mqttService: MqttClientService)</text><ellipse cx="1943.5" cy="158.1328" fill="#84BE84" rx="3" ry="3" style="stroke:#038048;stroke-width:1.0;"/><text fill="#000000" font-family="sans-serif" font-size="14" lengthAdjust="spacing" textLength="177" x="1952.5" y="162.3613">TurnOff(target: string) : void</text><ellipse cx="1943.5" cy="175.7422" fill="#84BE84" rx="3" ry="3" style="stroke:#038048;stroke-width:1.0;"/><text fill="#000000" font-family="sans-serif" font-size="14" lengthAdjust="spacing" textLength="177" x="1952.5" y="179.9707">TurnOn(target: string) : void</text></g><!--MD5=[4fde3b625d8ed61b9f428dd3d7567c7c]
class SocketDeviceRequestConverter--><g id="elem_SocketDeviceRequestConverter"><rect codeLine="50" fill="#F1F1F1" height="83.2188" id="SocketDeviceRequestConverter" rx="2.5" ry="2.5" style="stroke:#181818;stroke-width:0.5;" width="233" x="1996.5" y="335"/><ellipse cx="2011.5" cy="351" fill="#B4A7E5" rx="11" ry="11" style="stroke:#181818;stroke-width:1.0;"/><path d="M2012.4531,347.6406 L2012.4531,354.2969 L2014.1719,354.2969 Q2014.7813,354.2969 2015.0469,354.5313 Q2015.3125,354.7656 2015.3125,355.1563 Q2015.3125,355.5313 2015.0469,355.7656 Q2014.7813,356 2014.1719,356 L2009.0313,356 Q2008.4219,356 2008.1563,355.7656 Q2007.8906,355.5313 2007.8906,355.1406 Q2007.8906,354.7656 2008.1563,354.5313 Q2008.4219,354.2969 2009.0313,354.2969 L2010.75,354.2969 L2010.75,347.6406 L2009.0313,347.6406 Q2008.4219,347.6406 2008.1563,347.4063 Q2007.8906,347.1719 2007.8906,346.7813 Q2007.8906,346.4063 2008.1563,346.1719 Q2008.4219,345.9375 2009.0313,345.9375 L2014.1719,345.9375 Q2014.7813,345.9375 2015.0469,346.1719 Q2015.3125,346.4063 2015.3125,346.7813 Q2015.3125,347.1719 2015.0469,347.4063 Q2014.7813,347.6406 2014.1719,347.6406 L2012.4531,347.6406 Z " fill="#000000"/><text fill="#000000" font-family="sans-serif" font-size="14" font-style="italic" lengthAdjust="spacing" textLength="201" x="2025.5" y="356.7285">SocketDeviceRequestConverter</text><line style="stroke:#181818;stroke-width:0.5;" x1="1997.5" x2="2228.5" y1="367" y2="367"/><line style="stroke:#181818;stroke-width:0.5;" x1="1997.5" x2="2228.5" y1="375" y2="375"/><ellipse cx="2007.5" cy="389.3047" fill="#84BE84" rx="3" ry="3" style="stroke:#038048;stroke-width:1.0;"/><text fill="#000000" font-family="sans-serif" font-size="14" lengthAdjust="spacing" textLength="106" x="2016.5" y="393.5332">TurnOn() : string</text><ellipse cx="2007.5" cy="406.9141" fill="#84BE84" rx="3" ry="3" style="stroke:#038048;stroke-width:1.0;"/><text fill="#000000" font-family="sans-serif" font-size="14" lengthAdjust="spacing" textLength="106" x="2016.5" y="411.1426">TurnOff() : string</text></g><!--MD5=[b8b8d4a2ff17407423008125e6a0930e]
class HubSearcherComponent--><g id="elem_HubSearcherComponent"><rect codeLine="55" fill="#F1F1F1" height="224.0938" id="HubSearcherComponent" rx="2.5" ry="2.5" style="stroke:#181818;stroke-width:0.5;" width="607" x="2328.5" y="7"/><ellipse cx="2549.75" cy="23" fill="#ADD1B2" rx="11" ry="11" style="stroke:#181818;stroke-width:1.0;"/><path d="M2552.5156,18.875 Q2552.6719,18.6563 2552.8594,18.5469 Q2553.0469,18.4375 2553.2656,18.4375 Q2553.6406,18.4375 2553.875,18.6953 Q2554.1094,18.9531 2554.1094,19.5625 L2554.1094,21.0156 Q2554.1094,21.625 2553.875,21.8906 Q2553.6406,22.1563 2553.2656,22.1563 Q2552.9219,22.1563 2552.7188,21.9531 Q2552.5156,21.7656 2552.4063,21.25 Q2552.3594,20.8906 2552.1719,20.7031 Q2551.8438,20.3281 2551.2344,20.1094 Q2550.625,19.8906 2550,19.8906 Q2549.2344,19.8906 2548.6016,20.2188 Q2547.9688,20.5469 2547.4766,21.2969 Q2546.9844,22.0469 2546.9844,23.0781 L2546.9844,24.1719 Q2546.9844,25.4063 2547.875,26.2266 Q2548.7656,27.0469 2550.3594,27.0469 Q2551.2969,27.0469 2551.9531,26.7969 Q2552.3438,26.6406 2552.7656,26.2031 Q2553.0313,25.9375 2553.1797,25.8594 Q2553.3281,25.7813 2553.5313,25.7813 Q2553.8594,25.7813 2554.1172,26.0391 Q2554.375,26.2969 2554.375,26.6406 Q2554.375,26.9844 2554.0313,27.3906 Q2553.5313,27.9688 2552.7344,28.2969 Q2551.6563,28.75 2550.3594,28.75 Q2548.8438,28.75 2547.6406,28.125 Q2546.6563,27.625 2545.9688,26.5547 Q2545.2813,25.4844 2545.2813,24.2031 L2545.2813,23.0469 Q2545.2813,21.7188 2545.8984,20.5703 Q2546.5156,19.4219 2547.6094,18.8047 Q2548.7031,18.1875 2549.9375,18.1875 Q2550.6719,18.1875 2551.3203,18.3516 Q2551.9688,18.5156 2552.5156,18.875 Z " fill="#000000"/><text fill="#000000" font-family="sans-serif" font-size="14" lengthAdjust="spacing" textLength="156" x="2570.25" y="28.7285">HubSearcherComponent</text><line style="stroke:#181818;stroke-width:0.5;" x1="2329.5" x2="2934.5" y1="39" y2="39"/><rect fill="none" height="6" style="stroke:#C82930;stroke-width:1.0;" width="6" x="2336.5" y="50.3047"/><text fill="#000000" font-family="sans-serif" font-size="14" lengthAdjust="spacing" textLength="72" x="2348.5" y="57.5332">ssid : string</text><rect fill="none" height="6" style="stroke:#C82930;stroke-width:1.0;" width="6" x="2336.5" y="67.9141"/><text fill="#000000" font-family="sans-serif" font-size="14" lengthAdjust="spacing" textLength="121" x="2348.5" y="75.1426">passphrase : string</text><rect fill="none" height="6" style="stroke:#C82930;stroke-width:1.0;" width="6" x="2336.5" y="85.5234"/><text fill="#000000" font-family="sans-serif" font-size="14" lengthAdjust="spacing" textLength="76" x="2348.5" y="92.752">device : any</text><line style="stroke:#181818;stroke-width:0.5;" x1="2329.5" x2="2934.5" y1="99.8281" y2="99.8281"/><ellipse cx="2339.5" cy="114.1328" fill="#84BE84" rx="3" ry="3" style="stroke:#038048;stroke-width:1.0;"/><text fill="#000000" font-family="sans-serif" font-size="14" lengthAdjust="spacing" textLength="581" x="2348.5" y="118.3613">HubSearcherComponent(_zone: NgZone, _hubConnService: HubConnServiceService) : void</text><ellipse cx="2339.5" cy="131.7422" fill="#84BE84" rx="3" ry="3" style="stroke:#038048;stroke-width:1.0;"/><text fill="#000000" font-family="sans-serif" font-size="14" lengthAdjust="spacing" textLength="385" x="2348.5" y="135.9707">Connected(value: BluetoothRemoteGATTCharacteristic) void</text><ellipse cx="2339.5" cy="149.3516" fill="#84BE84" rx="3" ry="3" style="stroke:#038048;stroke-width:1.0;"/><text fill="#000000" font-family="sans-serif" font-size="14" lengthAdjust="spacing" textLength="101" x="2348.5" y="153.5801">Connect() : void</text><ellipse cx="2339.5" cy="166.9609" fill="#84BE84" rx="3" ry="3" style="stroke:#038048;stroke-width:1.0;"/><text fill="#000000" font-family="sans-serif" font-size="14" lengthAdjust="spacing" textLength="130" x="2348.5" y="171.1895">SelectDevice() : void</text><ellipse cx="2339.5" cy="184.5703" fill="#84BE84" rx="3" ry="3" style="stroke:#038048;stroke-width:1.0;"/><text fill="#000000" font-family="sans-serif" font-size="14" lengthAdjust="spacing" textLength="112" x="2348.5" y="188.7988">Sendinput() : void</text><rect fill="#F24D5C" height="6" style="stroke:#C82930;stroke-width:1.0;" width="6" x="2336.5" y="199.1797"/><text fill="#000000" font-family="sans-serif" font-size="14" lengthAdjust="spacing" textLength="188" x="2348.5" y="206.4082">OnSsidKey(event : any) : void</text><rect fill="#F24D5C" height="6" style="stroke:#C82930;stroke-width:1.0;" width="6" x="2336.5" y="216.7891"/><text fill="#000000" font-family="sans-serif" font-size="14" lengthAdjust="spacing" textLength="233" x="2348.5" y="224.0176">OnPassPhraseKey(event: any) : void</text></g><!--MD5=[4f63d11415da6fdc2fc6373cefe9e6de]
class HubConnServiceService--><g id="elem_HubConnServiceService"><rect codeLine="69" fill="#F1F1F1" height="171.2656" id="HubConnServiceService" rx="2.5" ry="2.5" style="stroke:#181818;stroke-width:0.5;" width="372" x="2446" y="291"/><ellipse cx="2551.25" cy="307" fill="#ADD1B2" rx="11" ry="11" style="stroke:#181818;stroke-width:1.0;"/><path d="M2554.0156,302.875 Q2554.1719,302.6563 2554.3594,302.5469 Q2554.5469,302.4375 2554.7656,302.4375 Q2555.1406,302.4375 2555.375,302.6953 Q2555.6094,302.9531 2555.6094,303.5625 L2555.6094,305.0156 Q2555.6094,305.625 2555.375,305.8906 Q2555.1406,306.1563 2554.7656,306.1563 Q2554.4219,306.1563 2554.2188,305.9531 Q2554.0156,305.7656 2553.9063,305.25 Q2553.8594,304.8906 2553.6719,304.7031 Q2553.3438,304.3281 2552.7344,304.1094 Q2552.125,303.8906 2551.5,303.8906 Q2550.7344,303.8906 2550.1016,304.2188 Q2549.4688,304.5469 2548.9766,305.2969 Q2548.4844,306.0469 2548.4844,307.0781 L2548.4844,308.1719 Q2548.4844,309.4063 2549.375,310.2266 Q2550.2656,311.0469 2551.8594,311.0469 Q2552.7969,311.0469 2553.4531,310.7969 Q2553.8438,310.6406 2554.2656,310.2031 Q2554.5313,309.9375 2554.6797,309.8594 Q2554.8281,309.7813 2555.0313,309.7813 Q2555.3594,309.7813 2555.6172,310.0391 Q2555.875,310.2969 2555.875,310.6406 Q2555.875,310.9844 2555.5313,311.3906 Q2555.0313,311.9688 2554.2344,312.2969 Q2553.1563,312.75 2551.8594,312.75 Q2550.3438,312.75 2549.1406,312.125 Q2548.1563,311.625 2547.4688,310.5547 Q2546.7813,309.4844 2546.7813,308.2031 L2546.7813,307.0469 Q2546.7813,305.7188 2547.3984,304.5703 Q2548.0156,303.4219 2549.1094,302.8047 Q2550.2031,302.1875 2551.4375,302.1875 Q2552.1719,302.1875 2552.8203,302.3516 Q2553.4688,302.5156 2554.0156,302.875 Z " fill="#000000"/><text fill="#000000" font-family="sans-serif" font-size="14" lengthAdjust="spacing" textLength="153" x="2571.75" y="312.7285">HubConnServiceService</text><line style="stroke:#181818;stroke-width:0.5;" x1="2447" x2="2817" y1="323" y2="323"/><text fill="#000000" font-family="sans-serif" font-size="14" lengthAdjust="spacing" textLength="310" x="2452" y="341.5332">GATT_CHARACTERISTIC_CONNECTION : string</text><text fill="#000000" font-family="sans-serif" font-size="14" lengthAdjust="spacing" textLength="221" x="2452" y="359.1426">GATT_PRIMARY_SERVICE : string</text><text fill="#000000" font-family="sans-serif" font-size="14" lengthAdjust="spacing" textLength="95" x="2452" y="376.752">character : any</text><line style="stroke:#181818;stroke-width:0.5;" x1="2447" x2="2817" y1="383.8281" y2="383.8281"/><text fill="#000000" font-family="sans-serif" font-size="14" lengthAdjust="spacing" textLength="281" x="2452" y="402.3613">HubConnServiceService(ble: BluetoothCore)</text><text fill="#000000" font-family="sans-serif" font-size="14" lengthAdjust="spacing" textLength="360" x="2452" y="419.9707">getCharConnect() : BluetoothRemoteGATTCharacteristic</text><text fill="#000000" font-family="sans-serif" font-size="14" lengthAdjust="spacing" textLength="339" x="2452" y="437.5801">getCharacter() : BluetoothRemoteGATTCharacteristic</text><text fill="#000000" font-family="sans-serif" font-size="14" lengthAdjust="spacing" textLength="188" x="2452" y="455.1895">getDevice() : BluetoothDevice</text></g><!--MD5=[3fd616f346a44cd59a91eb10b19e157c]
class User--><g id="elem_User"><rect codeLine="80" fill="#F1F1F1" height="136.0469" id="User" rx="2.5" ry="2.5" style="stroke:#181818;stroke-width:0.5;" width="136" x="2853" y="308.5"/><ellipse cx="2902.25" cy="324.5" fill="#ADD1B2" rx="11" ry="11" style="stroke:#181818;stroke-width:1.0;"/><path d="M2905.0156,320.375 Q2905.1719,320.1563 2905.3594,320.0469 Q2905.5469,319.9375 2905.7656,319.9375 Q2906.1406,319.9375 2906.375,320.1953 Q2906.6094,320.4531 2906.6094,321.0625 L2906.6094,322.5156 Q2906.6094,323.125 2906.375,323.3906 Q2906.1406,323.6563 2905.7656,323.6563 Q2905.4219,323.6563 2905.2188,323.4531 Q2905.0156,323.2656 2904.9063,322.75 Q2904.8594,322.3906 2904.6719,322.2031 Q2904.3438,321.8281 2903.7344,321.6094 Q2903.125,321.3906 2902.5,321.3906 Q2901.7344,321.3906 2901.1016,321.7188 Q2900.4688,322.0469 2899.9766,322.7969 Q2899.4844,323.5469 2899.4844,324.5781 L2899.4844,325.6719 Q2899.4844,326.9063 2900.375,327.7266 Q2901.2656,328.5469 2902.8594,328.5469 Q2903.7969,328.5469 2904.4531,328.2969 Q2904.8438,328.1406 2905.2656,327.7031 Q2905.5313,327.4375 2905.6797,327.3594 Q2905.8281,327.2813 2906.0313,327.2813 Q2906.3594,327.2813 2906.6172,327.5391 Q2906.875,327.7969 2906.875,328.1406 Q2906.875,328.4844 2906.5313,328.8906 Q2906.0313,329.4688 2905.2344,329.7969 Q2904.1563,330.25 2902.8594,330.25 Q2901.3438,330.25 2900.1406,329.625 Q2899.1563,329.125 2898.4688,328.0547 Q2897.7813,326.9844 2897.7813,325.7031 L2897.7813,324.5469 Q2897.7813,323.2188 2898.3984,322.0703 Q2899.0156,320.9219 2900.1094,320.3047 Q2901.2031,319.6875 2902.4375,319.6875 Q2903.1719,319.6875 2903.8203,319.8516 Q2904.4688,320.0156 2905.0156,320.375 Z " fill="#000000"/><text fill="#000000" font-family="sans-serif" font-size="14" lengthAdjust="spacing" textLength="29" x="2922.75" y="330.2285">User</text><line style="stroke:#181818;stroke-width:0.5;" x1="2854" x2="2988" y1="340.5" y2="340.5"/><ellipse cx="2864" cy="354.8047" fill="none" rx="3" ry="3" style="stroke:#038048;stroke-width:1.0;"/><text fill="#000000" font-family="sans-serif" font-size="14" lengthAdjust="spacing" textLength="110" x="2873" y="359.0332">username : string</text><ellipse cx="2864" cy="372.4141" fill="none" rx="3" ry="3" style="stroke:#038048;stroke-width:1.0;"/><text fill="#000000" font-family="sans-serif" font-size="14" lengthAdjust="spacing" textLength="107" x="2873" y="376.6426">password : string</text><ellipse cx="2864" cy="390.0234" fill="none" rx="3" ry="3" style="stroke:#038048;stroke-width:1.0;"/><text fill="#000000" font-family="sans-serif" font-size="14" lengthAdjust="spacing" textLength="80" x="2873" y="394.252">email : string</text><ellipse cx="2864" cy="407.6328" fill="none" rx="3" ry="3" style="stroke:#038048;stroke-width:1.0;"/><text fill="#000000" font-family="sans-serif" font-size="14" lengthAdjust="spacing" textLength="106" x="2873" y="411.8613">firstName : string</text><ellipse cx="2864" cy="425.2422" fill="none" rx="3" ry="3" style="stroke:#038048;stroke-width:1.0;"/><text fill="#000000" font-family="sans-serif" font-size="14" lengthAdjust="spacing" textLength="105" x="2873" y="429.4707">lastName : string</text><line style="stroke:#181818;stroke-width:0.5;" x1="2854" x2="2988" y1="436.5469" y2="436.5469"/></g><!--MD5=[88f66da615ead437be96f70edff3214c]
class UserToken--><g id="elem_UserToken"><rect codeLine="88" fill="#F1F1F1" height="65.6094" id="UserToken" rx="2.5" ry="2.5" style="stroke:#181818;stroke-width:0.5;" width="108" x="3057" y="86"/><ellipse cx="3075.15" cy="102" fill="#ADD1B2" rx="11" ry="11" style="stroke:#181818;stroke-width:1.0;"/><path d="M3077.9156,97.875 Q3078.0719,97.6563 3078.2594,97.5469 Q3078.4469,97.4375 3078.6656,97.4375 Q3079.0406,97.4375 3079.275,97.6953 Q3079.5094,97.9531 3079.5094,98.5625 L3079.5094,100.0156 Q3079.5094,100.625 3079.275,100.8906 Q3079.0406,101.1563 3078.6656,101.1563 Q3078.3219,101.1563 3078.1188,100.9531 Q3077.9156,100.7656 3077.8063,100.25 Q3077.7594,99.8906 3077.5719,99.7031 Q3077.2438,99.3281 3076.6344,99.1094 Q3076.025,98.8906 3075.4,98.8906 Q3074.6344,98.8906 3074.0016,99.2188 Q3073.3688,99.5469 3072.8766,100.2969 Q3072.3844,101.0469 3072.3844,102.0781 L3072.3844,103.1719 Q3072.3844,104.4063 3073.275,105.2266 Q3074.1656,106.0469 3075.7594,106.0469 Q3076.6969,106.0469 3077.3531,105.7969 Q3077.7438,105.6406 3078.1656,105.2031 Q3078.4313,104.9375 3078.5797,104.8594 Q3078.7281,104.7813 3078.9313,104.7813 Q3079.2594,104.7813 3079.5172,105.0391 Q3079.775,105.2969 3079.775,105.6406 Q3079.775,105.9844 3079.4313,106.3906 Q3078.9313,106.9688 3078.1344,107.2969 Q3077.0563,107.75 3075.7594,107.75 Q3074.2438,107.75 3073.0406,107.125 Q3072.0563,106.625 3071.3688,105.5547 Q3070.6813,104.4844 3070.6813,103.2031 L3070.6813,102.0469 Q3070.6813,100.7188 3071.2984,99.5703 Q3071.9156,98.4219 3073.0094,97.8047 Q3074.1031,97.1875 3075.3375,97.1875 Q3076.0719,97.1875 3076.7203,97.3516 Q3077.3688,97.5156 3077.9156,97.875 Z " fill="#000000"/><text fill="#000000" font-family="sans-serif" font-size="14" lengthAdjust="spacing" textLength="69" x="3089.85" y="107.7285">UserToken</text><line style="stroke:#181818;stroke-width:0.5;" x1="3058" x2="3164" y1="118" y2="118"/><ellipse cx="3068" cy="132.3047" fill="none" rx="3" ry="3" style="stroke:#038048;stroke-width:1.0;"/><text fill="#000000" font-family="sans-serif" font-size="14" lengthAdjust="spacing" textLength="82" x="3077" y="136.5332">token : string</text><line style="stroke:#181818;stroke-width:0.5;" x1="3058" x2="3164" y1="143.6094" y2="143.6094"/></g><!--MD5=[d3d5e8e02b04d835724adf8c28d337f5]
class UserRegisterService--><g id="elem_UserRegisterService"><rect codeLine="92" fill="#F1F1F1" height="83.2188" id="UserRegisterService" rx="2.5" ry="2.5" style="stroke:#181818;stroke-width:0.5;" width="344" x="3024" y="335"/><ellipse cx="3127.25" cy="351" fill="#ADD1B2" rx="11" ry="11" style="stroke:#181818;stroke-width:1.0;"/><path d="M3130.0156,346.875 Q3130.1719,346.6563 3130.3594,346.5469 Q3130.5469,346.4375 3130.7656,346.4375 Q3131.1406,346.4375 3131.375,346.6953 Q3131.6094,346.9531 3131.6094,347.5625 L3131.6094,349.0156 Q3131.6094,349.625 3131.375,349.8906 Q3131.1406,350.1563 3130.7656,350.1563 Q3130.4219,350.1563 3130.2188,349.9531 Q3130.0156,349.7656 3129.9063,349.25 Q3129.8594,348.8906 3129.6719,348.7031 Q3129.3438,348.3281 3128.7344,348.1094 Q3128.125,347.8906 3127.5,347.8906 Q3126.7344,347.8906 3126.1016,348.2188 Q3125.4688,348.5469 3124.9766,349.2969 Q3124.4844,350.0469 3124.4844,351.0781 L3124.4844,352.1719 Q3124.4844,353.4063 3125.375,354.2266 Q3126.2656,355.0469 3127.8594,355.0469 Q3128.7969,355.0469 3129.4531,354.7969 Q3129.8438,354.6406 3130.2656,354.2031 Q3130.5313,353.9375 3130.6797,353.8594 Q3130.8281,353.7813 3131.0313,353.7813 Q3131.3594,353.7813 3131.6172,354.0391 Q3131.875,354.2969 3131.875,354.6406 Q3131.875,354.9844 3131.5313,355.3906 Q3131.0313,355.9688 3130.2344,356.2969 Q3129.1563,356.75 3127.8594,356.75 Q3126.3438,356.75 3125.1406,356.125 Q3124.1563,355.625 3123.4688,354.5547 Q3122.7813,353.4844 3122.7813,352.2031 L3122.7813,351.0469 Q3122.7813,349.7188 3123.3984,348.5703 Q3124.0156,347.4219 3125.1094,346.8047 Q3126.2031,346.1875 3127.4375,346.1875 Q3128.1719,346.1875 3128.8203,346.3516 Q3129.4688,346.5156 3130.0156,346.875 Z " fill="#000000"/><text fill="#000000" font-family="sans-serif" font-size="14" lengthAdjust="spacing" textLength="129" x="3147.75" y="356.7285">UserRegisterService</text><line style="stroke:#181818;stroke-width:0.5;" x1="3025" x2="3367" y1="367" y2="367"/><line style="stroke:#181818;stroke-width:0.5;" x1="3025" x2="3367" y1="375" y2="375"/><ellipse cx="3035" cy="389.3047" fill="#84BE84" rx="3" ry="3" style="stroke:#038048;stroke-width:1.0;"/><text fill="#000000" font-family="sans-serif" font-size="14" lengthAdjust="spacing" textLength="232" x="3044" y="393.5332">CreateUser(user : User) : UserToken</text><ellipse cx="3035" cy="406.9141" fill="#84BE84" rx="3" ry="3" style="stroke:#038048;stroke-width:1.0;"/><text fill="#000000" font-family="sans-serif" font-size="14" lengthAdjust="spacing" textLength="318" x="3044" y="411.1426">SaveCreatedUser(createdUser : UserToken) : void</text></g><!--MD5=[cf538f60765b1252f11b1c409725129b]
class AuthguardService--><g id="elem_AuthguardService"><rect codeLine="97" fill="#F1F1F1" height="136.0469" id="AuthguardService" rx="2.5" ry="2.5" style="stroke:#181818;stroke-width:0.5;" width="242" x="596" y="51"/><ellipse cx="656.25" cy="67" fill="#ADD1B2" rx="11" ry="11" style="stroke:#181818;stroke-width:1.0;"/><path d="M659.0156,62.875 Q659.1719,62.6563 659.3594,62.5469 Q659.5469,62.4375 659.7656,62.4375 Q660.1406,62.4375 660.375,62.6953 Q660.6094,62.9531 660.6094,63.5625 L660.6094,65.0156 Q660.6094,65.625 660.375,65.8906 Q660.1406,66.1563 659.7656,66.1563 Q659.4219,66.1563 659.2188,65.9531 Q659.0156,65.7656 658.9063,65.25 Q658.8594,64.8906 658.6719,64.7031 Q658.3438,64.3281 657.7344,64.1094 Q657.125,63.8906 656.5,63.8906 Q655.7344,63.8906 655.1016,64.2188 Q654.4688,64.5469 653.9766,65.2969 Q653.4844,66.0469 653.4844,67.0781 L653.4844,68.1719 Q653.4844,69.4063 654.375,70.2266 Q655.2656,71.0469 656.8594,71.0469 Q657.7969,71.0469 658.4531,70.7969 Q658.8438,70.6406 659.2656,70.2031 Q659.5313,69.9375 659.6797,69.8594 Q659.8281,69.7813 660.0313,69.7813 Q660.3594,69.7813 660.6172,70.0391 Q660.875,70.2969 660.875,70.6406 Q660.875,70.9844 660.5313,71.3906 Q660.0313,71.9688 659.2344,72.2969 Q658.1563,72.75 656.8594,72.75 Q655.3438,72.75 654.1406,72.125 Q653.1563,71.625 652.4688,70.5547 Q651.7813,69.4844 651.7813,68.2031 L651.7813,67.0469 Q651.7813,65.7188 652.3984,64.5703 Q653.0156,63.4219 654.1094,62.8047 Q655.2031,62.1875 656.4375,62.1875 Q657.1719,62.1875 657.8203,62.3516 Q658.4688,62.5156 659.0156,62.875 Z " fill="#000000"/><text fill="#000000" font-family="sans-serif" font-size="14" lengthAdjust="spacing" textLength="113" x="676.75" y="72.7285">AuthguardService</text><line style="stroke:#181818;stroke-width:0.5;" x1="597" x2="837" y1="83" y2="83"/><line style="stroke:#181818;stroke-width:0.5;" x1="597" x2="837" y1="91" y2="91"/><text fill="#000000" font-family="sans-serif" font-size="14" lengthAdjust="spacing" textLength="216" x="616" y="109.5332">AuthguardService(http: HttpClient)</text><text fill="#000000" font-family="sans-serif" font-size="14" lengthAdjust="spacing" textLength="4" x="616" y="127.1426"> </text><ellipse cx="607" cy="140.5234" fill="#84BE84" rx="3" ry="3" style="stroke:#038048;stroke-width:1.0;"/><text fill="#000000" font-family="sans-serif" font-size="14" lengthAdjust="spacing" textLength="121" x="616" y="144.752">CanActivate(): bool</text><text fill="#000000" font-family="sans-serif" font-size="14" lengthAdjust="spacing" textLength="4" x="616" y="162.3613"> </text><ellipse cx="607" cy="175.7422" fill="#84BE84" rx="3" ry="3" style="stroke:#038048;stroke-width:1.0;"/><text fill="#000000" font-family="sans-serif" font-size="14" lengthAdjust="spacing" textLength="113" x="616" y="179.9707">HasToken() : bool</text></g><!--MD5=[6b0f16bfface35da74db76ed126ace72]
class HubService--><g id="elem_HubService"><rect codeLine="107" fill="#F1F1F1" height="118.4375" id="HubService" rx="2.5" ry="2.5" style="stroke:#181818;stroke-width:0.5;" width="391" x="18.5" y="317.5"/><ellipse cx="173.75" cy="333.5" fill="#ADD1B2" rx="11" ry="11" style="stroke:#181818;stroke-width:1.0;"/><path d="M176.5156,329.375 Q176.6719,329.1563 176.8594,329.0469 Q177.0469,328.9375 177.2656,328.9375 Q177.6406,328.9375 177.875,329.1953 Q178.1094,329.4531 178.1094,330.0625 L178.1094,331.5156 Q178.1094,332.125 177.875,332.3906 Q177.6406,332.6563 177.2656,332.6563 Q176.9219,332.6563 176.7188,332.4531 Q176.5156,332.2656 176.4063,331.75 Q176.3594,331.3906 176.1719,331.2031 Q175.8438,330.8281 175.2344,330.6094 Q174.625,330.3906 174,330.3906 Q173.2344,330.3906 172.6016,330.7188 Q171.9688,331.0469 171.4766,331.7969 Q170.9844,332.5469 170.9844,333.5781 L170.9844,334.6719 Q170.9844,335.9063 171.875,336.7266 Q172.7656,337.5469 174.3594,337.5469 Q175.2969,337.5469 175.9531,337.2969 Q176.3438,337.1406 176.7656,336.7031 Q177.0313,336.4375 177.1797,336.3594 Q177.3281,336.2813 177.5313,336.2813 Q177.8594,336.2813 178.1172,336.5391 Q178.375,336.7969 178.375,337.1406 Q178.375,337.4844 178.0313,337.8906 Q177.5313,338.4688 176.7344,338.7969 Q175.6563,339.25 174.3594,339.25 Q172.8438,339.25 171.6406,338.625 Q170.6563,338.125 169.9688,337.0547 Q169.2813,335.9844 169.2813,334.7031 L169.2813,333.5469 Q169.2813,332.2188 169.8984,331.0703 Q170.5156,329.9219 171.6094,329.3047 Q172.7031,328.6875 173.9375,328.6875 Q174.6719,328.6875 175.3203,328.8516 Q175.9688,329.0156 176.5156,329.375 Z " fill="#000000"/><text fill="#000000" font-family="sans-serif" font-size="14" lengthAdjust="spacing" textLength="72" x="194.25" y="339.2285">HubService</text><line style="stroke:#181818;stroke-width:0.5;" x1="19.5" x2="408.5" y1="349.5" y2="349.5"/><rect fill="none" height="6" style="stroke:#C82930;stroke-width:1.0;" width="6" x="26.5" y="360.8047"/><text fill="#000000" font-family="sans-serif" font-size="14" lengthAdjust="spacing" textLength="188" x="38.5" y="368.0332">hubDevices: List&lt;HubDevice&gt;</text><line style="stroke:#181818;stroke-width:0.5;" x1="19.5" x2="408.5" y1="375.1094" y2="375.1094"/><ellipse cx="29.5" cy="389.4141" fill="#84BE84" rx="3" ry="3" style="stroke:#038048;stroke-width:1.0;"/><text fill="#000000" font-family="sans-serif" font-size="14" lengthAdjust="spacing" textLength="365" x="38.5" y="393.6426">GetHubDevicesFromGroup(group_idenfitifer: string) : void</text><ellipse cx="29.5" cy="407.0234" fill="#84BE84" rx="3" ry="3" style="stroke:#038048;stroke-width:1.0;"/><text fill="#000000" font-family="sans-serif" font-size="14" lengthAdjust="spacing" textLength="201" x="38.5" y="411.252">GetDevices() : List&lt;HubDevice&gt;</text><ellipse cx="29.5" cy="424.6328" fill="#84BE84" rx="3" ry="3" style="stroke:#038048;stroke-width:1.0;"/><text fill="#000000" font-family="sans-serif" font-size="14" lengthAdjust="spacing" textLength="255" x="38.5" y="428.8613">GetFilteredDevices&lt;T&gt;(type:T) : List&lt;T&gt;</text></g><!--MD5=[588dac84b324a6d0d79d87aa33d7876d]
class UserLoginService--><g id="elem_UserLoginService"><rect codeLine="116" fill="#F1F1F1" height="118.4375" id="UserLoginService" rx="2.5" ry="2.5" style="stroke:#181818;stroke-width:0.5;" width="452" x="445" y="317.5"/><ellipse cx="611.25" cy="333.5" fill="#ADD1B2" rx="11" ry="11" style="stroke:#181818;stroke-width:1.0;"/><path d="M614.0156,329.375 Q614.1719,329.1563 614.3594,329.0469 Q614.5469,328.9375 614.7656,328.9375 Q615.1406,328.9375 615.375,329.1953 Q615.6094,329.4531 615.6094,330.0625 L615.6094,331.5156 Q615.6094,332.125 615.375,332.3906 Q615.1406,332.6563 614.7656,332.6563 Q614.4219,332.6563 614.2188,332.4531 Q614.0156,332.2656 613.9063,331.75 Q613.8594,331.3906 613.6719,331.2031 Q613.3438,330.8281 612.7344,330.6094 Q612.125,330.3906 611.5,330.3906 Q610.7344,330.3906 610.1016,330.7188 Q609.4688,331.0469 608.9766,331.7969 Q608.4844,332.5469 608.4844,333.5781 L608.4844,334.6719 Q608.4844,335.9063 609.375,336.7266 Q610.2656,337.5469 611.8594,337.5469 Q612.7969,337.5469 613.4531,337.2969 Q613.8438,337.1406 614.2656,336.7031 Q614.5313,336.4375 614.6797,336.3594 Q614.8281,336.2813 615.0313,336.2813 Q615.3594,336.2813 615.6172,336.5391 Q615.875,336.7969 615.875,337.1406 Q615.875,337.4844 615.5313,337.8906 Q615.0313,338.4688 614.2344,338.7969 Q613.1563,339.25 611.8594,339.25 Q610.3438,339.25 609.1406,338.625 Q608.1563,338.125 607.4688,337.0547 Q606.7813,335.9844 606.7813,334.7031 L606.7813,333.5469 Q606.7813,332.2188 607.3984,331.0703 Q608.0156,329.9219 609.1094,329.3047 Q610.2031,328.6875 611.4375,328.6875 Q612.1719,328.6875 612.8203,328.8516 Q613.4688,329.0156 614.0156,329.375 Z " fill="#000000"/><text fill="#000000" font-family="sans-serif" font-size="14" lengthAdjust="spacing" textLength="111" x="631.75" y="339.2285">UserLoginService</text><line style="stroke:#181818;stroke-width:0.5;" x1="446" x2="896" y1="349.5" y2="349.5"/><line style="stroke:#181818;stroke-width:0.5;" x1="446" x2="896" y1="357.5" y2="357.5"/><ellipse cx="456" cy="371.8047" fill="#84BE84" rx="3" ry="3" style="stroke:#038048;stroke-width:1.0;"/><text fill="#000000" font-family="sans-serif" font-size="14" lengthAdjust="spacing" textLength="261" x="465" y="376.0332">UserLoginService(private http: HttpClient)</text><text fill="#000000" font-family="sans-serif" font-size="14" lengthAdjust="spacing" textLength="4" x="465" y="393.6426"> </text><ellipse cx="456" cy="407.0234" fill="#84BE84" rx="3" ry="3" style="stroke:#038048;stroke-width:1.0;"/><text fill="#000000" font-family="sans-serif" font-size="14" lengthAdjust="spacing" textLength="426" x="465" y="411.252">ValidateLoginUser(userLogin: UserLogin): Observable&lt;UserToken&gt;</text><ellipse cx="456" cy="424.6328" fill="#84BE84" rx="3" ry="3" style="stroke:#038048;stroke-width:1.0;"/><text fill="#000000" font-family="sans-serif" font-size="14" lengthAdjust="spacing" textLength="328" x="465" y="428.8613">SaveLoggedinUser(loggedinUser: UserToken) : void</text></g><!--MD5=[555b57a26209a6f2136a321079226d6f]
class UserLogoutService--><g id="elem_UserLogoutService"><rect codeLine="124" fill="#F1F1F1" height="65.6094" id="UserLogoutService" rx="2.5" ry="2.5" style="stroke:#181818;stroke-width:0.5;" width="167" x="932.5" y="343.5"/><ellipse cx="954.25" cy="359.5" fill="#ADD1B2" rx="11" ry="11" style="stroke:#181818;stroke-width:1.0;"/><path d="M957.0156,355.375 Q957.1719,355.1563 957.3594,355.0469 Q957.5469,354.9375 957.7656,354.9375 Q958.1406,354.9375 958.375,355.1953 Q958.6094,355.4531 958.6094,356.0625 L958.6094,357.5156 Q958.6094,358.125 958.375,358.3906 Q958.1406,358.6563 957.7656,358.6563 Q957.4219,358.6563 957.2188,358.4531 Q957.0156,358.2656 956.9063,357.75 Q956.8594,357.3906 956.6719,357.2031 Q956.3438,356.8281 955.7344,356.6094 Q955.125,356.3906 954.5,356.3906 Q953.7344,356.3906 953.1016,356.7188 Q952.4688,357.0469 951.9766,357.7969 Q951.4844,358.5469 951.4844,359.5781 L951.4844,360.6719 Q951.4844,361.9063 952.375,362.7266 Q953.2656,363.5469 954.8594,363.5469 Q955.7969,363.5469 956.4531,363.2969 Q956.8438,363.1406 957.2656,362.7031 Q957.5313,362.4375 957.6797,362.3594 Q957.8281,362.2813 958.0313,362.2813 Q958.3594,362.2813 958.6172,362.5391 Q958.875,362.7969 958.875,363.1406 Q958.875,363.4844 958.5313,363.8906 Q958.0313,364.4688 957.2344,364.7969 Q956.1563,365.25 954.8594,365.25 Q953.3438,365.25 952.1406,364.625 Q951.1563,364.125 950.4688,363.0547 Q949.7813,361.9844 949.7813,360.7031 L949.7813,359.5469 Q949.7813,358.2188 950.3984,357.0703 Q951.0156,355.9219 952.1094,355.3047 Q953.2031,354.6875 954.4375,354.6875 Q955.1719,354.6875 955.8203,354.8516 Q956.4688,355.0156 957.0156,355.375 Z " fill="#000000"/><text fill="#000000" font-family="sans-serif" font-size="14" lengthAdjust="spacing" textLength="120" x="969.75" y="365.2285">UserLogoutService</text><line style="stroke:#181818;stroke-width:0.5;" x1="933.5" x2="1098.5" y1="375.5" y2="375.5"/><line style="stroke:#181818;stroke-width:0.5;" x1="933.5" x2="1098.5" y1="383.5" y2="383.5"/><ellipse cx="943.5" cy="397.8047" fill="#84BE84" rx="3" ry="3" style="stroke:#038048;stroke-width:1.0;"/><text fill="#000000" font-family="sans-serif" font-size="14" lengthAdjust="spacing" textLength="141" x="952.5" y="402.0332">logoutUser() : boolean</text></g><!--MD5=[8216a042fc7af2ca1b54eaa89fc73879]
link UserToken to User--><g id="link_UserToken_User"><path codeLine="129" d="M3087.13,152.1 C3061.13,187.07 3018.49,244.4 2982.93,292.23 " fill="none" id="UserToken-to-User" style="stroke:#181818;stroke-width:1.0;"/><polygon fill="none" points="2988.48,296.49,2970.92,308.36,2977.24,288.14,2988.48,296.49" style="stroke:#181818;stroke-width:1.0;"/></g><!--MD5=[ec2e25ebd2f7d37ea24fc01f2fbf1b06]
reverse link UserToken to UserRegisterService--><g id="link_UserToken_UserRegisterService"><path codeLine="130" d="M3123.26,156.85 C3138.99,204.13 3166.18,285.88 3182.49,334.9 " fill="none" id="UserToken-backto-UserRegisterService" style="stroke:#181818;stroke-width:1.0;"/><polygon fill="#181818" points="3121.68,152.1,3120.7402,161.9039,3123.2654,156.842,3128.3274,159.3672,3121.68,152.1" style="stroke:#181818;stroke-width:1.0;"/></g><!--MD5=[f8b47428fd567abe0a2e65888520c4c2]
link HubDevice to IoTDevice--><g id="link_HubDevice_IoTDevice"><path codeLine="131" d="M1065.67,143.08 C1079.07,165.61 1100.19,200.82 1119,231 C1137.8,261.16 1159.24,294.54 1176.8,321.61 " fill="none" id="HubDevice-to-IoTDevice" style="stroke:#181818;stroke-width:1.0;stroke-dasharray:7.0,7.0;"/><polygon fill="#181818" points="1179.58,325.9,1178.0545,316.17,1176.8661,321.7006,1171.3355,320.5122,1179.58,325.9" style="stroke:#181818;stroke-width:1.0;"/></g><!--MD5=[6af555555dd13b43b662c68a47de73d6]
link SocketDevice to IoTDevice--><g id="link_SocketDevice_IoTDevice"><path codeLine="132" d="M1212,169.57 C1212,212.88 1212,275.69 1212,320.53 " fill="none" id="SocketDevice-to-IoTDevice" style="stroke:#181818;stroke-width:1.0;stroke-dasharray:7.0,7.0;"/><polygon fill="#181818" points="1212,325.64,1216,316.64,1212,320.64,1208,316.64,1212,325.64" style="stroke:#181818;stroke-width:1.0;"/></g><!--MD5=[cc8e9c21e698333532253ee833f9d808]
reverse link SocketDeviceService to SocketDeviceRequestConverter--><g id="link_SocketDeviceService_SocketDeviceRequestConverter"><path codeLine="133" d="M2113,200.37 C2113,245.03 2113,298.68 2113,334.74 " fill="none" id="SocketDeviceService-backto-SocketDeviceRequestConverter" style="stroke:#181818;stroke-width:1.0;"/><polygon fill="#181818" points="2113,187.13,2109,193.13,2113,199.13,2117,193.13,2113,187.13" style="stroke:#181818;stroke-width:1.0;"/></g><!--MD5=[c913ee6bba6902643ea26bbdb552f7bb]
reverse link SocketDeviceService to MqttClientService--><g id="link_SocketDeviceService_MqttClientService"><path codeLine="134" d="M1983.33,193.62 C1913.99,233 1829.82,280.78 1765.16,317.49 " fill="none" id="SocketDeviceService-backto-MqttClientService" style="stroke:#181818;stroke-width:1.0;"/><polygon fill="none" points="1994.77,187.13,1987.5777,186.6094,1984.3309,193.0481,1991.5231,193.5688,1994.77,187.13" style="stroke:#181818;stroke-width:1.0;"/></g><!--MD5=[83e625f0524529df2751e6e3a9d7f72e]
link IoTService to IoTDevice--><g id="link_IoTService_IoTDevice"><path codeLine="135" d="M1491.4,196.14 C1425.99,238.13 1346.65,289.06 1289.26,325.9 " fill="none" id="IoTService-IoTDevice" style="stroke:#181818;stroke-width:1.0;"/></g><!--MD5=[c8b3cffdbc0c3362e2280be427461d98]
reverse link HubSearcherComponent to HubConnServiceService--><g id="link_HubSearcherComponent_HubConnServiceService"><path codeLine="136" d="M2632,244.44 C2632,260.1 2632,275.83 2632,290.68 " fill="none" id="HubSearcherComponent-backto-HubConnServiceService" style="stroke:#181818;stroke-width:1.0;"/><polygon fill="#181818" points="2632,231.32,2628,237.32,2632,243.32,2636,237.32,2632,231.32" style="stroke:#181818;stroke-width:1.0;"/></g><!--MD5=[6a92984549e4bb8195d9d25e26a67d4a]
reverse link IoTService to MqttClientService--><g id="link_IoTService_MqttClientService"><path codeLine="138" d="M1628.52,209.3 C1635.96,245.16 1644.33,285.48 1650.95,317.43 " fill="none" id="IoTService-backto-MqttClientService" style="stroke:#181818;stroke-width:1.0;"/><polygon fill="none" points="1625.83,196.31,1623.1333,202.9979,1628.2696,208.0594,1630.9662,201.3715,1625.83,196.31" style="stroke:#181818;stroke-width:1.0;"/></g><!--MD5=[cbfb82163ea8a6b760f6bfd4cd3d645b]
@startuml Webclient

note "SocketDeviceRequestConverter will not have implementations shown\nMqttService is a third party library\nDto's will not be shown in this diagram." as n1

interface IoTDevice {
    +name: string
    +status: boolean
    +mac_address: string
}

class Device {
    +id: string
    +name: string
}

class HubDevice {
}

class SocketDevice {
    +turned_on: boolean
    +group: string
    +parent: IoTDevice
}

class IoTService {
    +GetSocketDevicesFromHub(hubIdenfitifer : string) : void
    +GetDevices() : Array<IoTDevice>
    -GetFilteredDevices<T extends IoTDevice>(type: T) : Array<T>
    -GetDeviceById(clientId: string) : IoTDevice
    -OnSocketStatusResponse(status: DeviceStatusResponse<SocketDeviceStatus>) : void
    -OnIoTStatusResponse(message: string) : void
}

class MqttClientService {
  -client: MqttService

  +Publish(target: string, data: string) : void
  +Subscribe(target: string, onMessageFunc: (message : string) : void) : void
  -CreateOptions() : IMqttServiceOptions
}

class SocketDeviceService {
  -requestConverter: SocketDeviceRequestConverter
  -mqttService {readonly}: MqttClientService

  +SocketDeviceService(mqttService: MqttClientService) 
  +TurnOff(target: string) : void
  +TurnOn(target: string) : void
}

interface SocketDeviceRequestConverter {
    +TurnOn() : string
    +TurnOff() : string
}

class HubSearcherComponent{
    -ssid : string
    -passphrase : string
    -device : any

    +HubSearcherComponent(_zone: NgZone, _hubConnService: HubConnServiceService) : void
    +Connected(value: BluetoothRemoteGATTCharacteristic) void
    +Connect() : void
    +SelectDevice() : void
    +Sendinput() : void
    -OnSsidKey(event : any) : void
    -OnPassPhraseKey(event: any) : void
}

class HubConnServiceService{
    GATT_CHARACTERISTIC_CONNECTION : string
    GATT_PRIMARY_SERVICE : string
    character : any

    HubConnServiceService(ble: BluetoothCore)
    getCharConnect() : BluetoothRemoteGATTCharacteristic
    getCharacter() : BluetoothRemoteGATTCharacteristic
    getDevice() : BluetoothDevice
}

class User{
    +username : string
    +password : string
    +email : string
    +firstName : string
    +lastName : string
}

class UserToken{
    +token : string
}

class UserRegisterService{
    +CreateUser(user : User) : UserToken
    +SaveCreatedUser(createdUser : UserToken) : void
}

class AuthguardService {

  AuthguardService(http: HttpClient)

  +CanActivate(): bool

  +HasToken() : bool

}

class HubService {

  -hubDevices: List<HubDevice>

  +GetHubDevicesFromGroup(group_idenfitifer: string) : void
  +GetDevices() : List<HubDevice>
  +GetFilteredDevices<T>(type:T) : List<T>
}

class UserLoginService {

  +UserLoginService(private http: HttpClient)

  +ValidateLoginUser(userLogin: UserLogin): Observable<UserToken>
  +SaveLoggedinUser(loggedinUser: UserToken) : void
}

class UserLogoutService {

  +logoutUser() : boolean
}

UserToken - -|> User
UserToken <- - UserRegisterService
HubDevice ..> IoTDevice
SocketDevice ..> IoTDevice
SocketDeviceService *- - SocketDeviceRequestConverter
SocketDeviceService o- - MqttClientService
IoTService - - IoTDevice
HubSearcherComponent *- - HubConnServiceService

IoTService o- - MqttClientService

@enduml

PlantUML version 1.2022.7(Mon Aug 22 19:01:30 CEST 2022)
(GPL source distribution)
Java Runtime: Java(TM) SE Runtime Environment
JVM: Java HotSpot(TM) Client VM
Default Encoding: Cp1252
Language: en
Country: US
--></g></svg>