<?xml version="1.0" encoding="UTF-8" standalone="no"?><svg xmlns="http://www.w3.org/2000/svg" xmlns:xlink="http://www.w3.org/1999/xlink" contentStyleType="text/css" height="469px" preserveAspectRatio="none" style="width:2961px;height:469px;background:#FFFFFF;" version="1.1" viewBox="0 0 2961 469" width="2961px" zoomAndPan="magnify"><defs/><g><g id="elem_n1"><path d="M6,89.5 L6,148.5547 L422,148.5547 L422,99.5 L412,89.5 L6,89.5 " fill="#FEFFDD" style="stroke:#181818;stroke-width:0.5;"/><path d="M412,89.5 L412,99.5 L422,99.5 L412,89.5 " fill="#FEFFDD" style="stroke:#181818;stroke-width:1.0;"/><text fill="#000000" font-family="sans-serif" font-size="13" lengthAdjust="spacing" textLength="395" x="12" y="107.9951">SocketDeviceRequestConverter will not have implementations shown</text><text fill="#000000" font-family="sans-serif" font-size="13" lengthAdjust="spacing" textLength="194" x="12" y="124.3467">MqttService is a third party library</text><text fill="#000000" font-family="sans-serif" font-size="13" lengthAdjust="spacing" textLength="225" x="12" y="140.6982">Dto's will not be shown in this diagram.</text></g><!--MD5=[34ea5e9e36643e922bdff05f56a7400c]
class IoTDevice--><g id="elem_IoTDevice"><rect codeLine="4" fill="#F1F1F1" height="100.8281" id="IoTDevice" rx="2.5" ry="2.5" style="stroke:#181818;stroke-width:0.5;" width="154" x="590" y="326"/><ellipse cx="631.55" cy="342" fill="#B4A7E5" rx="11" ry="11" style="stroke:#181818;stroke-width:1.0;"/><path d="M632.5031,338.6406 L632.5031,345.2969 L634.2219,345.2969 Q634.8313,345.2969 635.0969,345.5313 Q635.3625,345.7656 635.3625,346.1563 Q635.3625,346.5313 635.0969,346.7656 Q634.8313,347 634.2219,347 L629.0813,347 Q628.4719,347 628.2063,346.7656 Q627.9406,346.5313 627.9406,346.1406 Q627.9406,345.7656 628.2063,345.5313 Q628.4719,345.2969 629.0813,345.2969 L630.8,345.2969 L630.8,338.6406 L629.0813,338.6406 Q628.4719,338.6406 628.2063,338.4063 Q627.9406,338.1719 627.9406,337.7813 Q627.9406,337.4063 628.2063,337.1719 Q628.4719,336.9375 629.0813,336.9375 L634.2219,336.9375 Q634.8313,336.9375 635.0969,337.1719 Q635.3625,337.4063 635.3625,337.7813 Q635.3625,338.1719 635.0969,338.4063 Q634.8313,338.6406 634.2219,338.6406 L632.5031,338.6406 Z " fill="#000000"/><text fill="#000000" font-family="sans-serif" font-size="14" font-style="italic" lengthAdjust="spacing" textLength="63" x="651.45" y="347.7285">IoTDevice</text><line style="stroke:#181818;stroke-width:0.5;" x1="591" x2="743" y1="358" y2="358"/><ellipse cx="601" cy="372.3047" fill="none" rx="3" ry="3" style="stroke:#038048;stroke-width:1.0;"/><text fill="#000000" font-family="sans-serif" font-size="14" lengthAdjust="spacing" textLength="78" x="610" y="376.5332">name: string</text><ellipse cx="601" cy="389.9141" fill="none" rx="3" ry="3" style="stroke:#038048;stroke-width:1.0;"/><text fill="#000000" font-family="sans-serif" font-size="14" lengthAdjust="spacing" textLength="97" x="610" y="394.1426">status: boolean</text><ellipse cx="601" cy="407.5234" fill="none" rx="3" ry="3" style="stroke:#038048;stroke-width:1.0;"/><text fill="#000000" font-family="sans-serif" font-size="14" lengthAdjust="spacing" textLength="128" x="610" y="411.752">mac_address: string</text><line style="stroke:#181818;stroke-width:0.5;" x1="591" x2="743" y1="418.8281" y2="418.8281"/></g><!--MD5=[fc539fa3f3b7db9b31467e896d367b3b]
class Device--><g id="elem_Device"><rect codeLine="10" fill="#F1F1F1" height="83.2188" id="Device" rx="2.5" ry="2.5" style="stroke:#181818;stroke-width:0.5;" width="104" x="1388" y="77.5"/><ellipse cx="1416.05" cy="93.5" fill="#ADD1B2" rx="11" ry="11" style="stroke:#181818;stroke-width:1.0;"/><path d="M1418.8156,89.375 Q1418.9719,89.1563 1419.1594,89.0469 Q1419.3469,88.9375 1419.5656,88.9375 Q1419.9406,88.9375 1420.175,89.1953 Q1420.4094,89.4531 1420.4094,90.0625 L1420.4094,91.5156 Q1420.4094,92.125 1420.175,92.3906 Q1419.9406,92.6563 1419.5656,92.6563 Q1419.2219,92.6563 1419.0188,92.4531 Q1418.8156,92.2656 1418.7063,91.75 Q1418.6594,91.3906 1418.4719,91.2031 Q1418.1438,90.8281 1417.5344,90.6094 Q1416.925,90.3906 1416.3,90.3906 Q1415.5344,90.3906 1414.9016,90.7188 Q1414.2688,91.0469 1413.7766,91.7969 Q1413.2844,92.5469 1413.2844,93.5781 L1413.2844,94.6719 Q1413.2844,95.9063 1414.175,96.7266 Q1415.0656,97.5469 1416.6594,97.5469 Q1417.5969,97.5469 1418.2531,97.2969 Q1418.6438,97.1406 1419.0656,96.7031 Q1419.3313,96.4375 1419.4797,96.3594 Q1419.6281,96.2813 1419.8313,96.2813 Q1420.1594,96.2813 1420.4172,96.5391 Q1420.675,96.7969 1420.675,97.1406 Q1420.675,97.4844 1420.3313,97.8906 Q1419.8313,98.4688 1419.0344,98.7969 Q1417.9563,99.25 1416.6594,99.25 Q1415.1438,99.25 1413.9406,98.625 Q1412.9563,98.125 1412.2688,97.0547 Q1411.5813,95.9844 1411.5813,94.7031 L1411.5813,93.5469 Q1411.5813,92.2188 1412.1984,91.0703 Q1412.8156,89.9219 1413.9094,89.3047 Q1415.0031,88.6875 1416.2375,88.6875 Q1416.9719,88.6875 1417.6203,88.8516 Q1418.2688,89.0156 1418.8156,89.375 Z " fill="#000000"/><text fill="#000000" font-family="sans-serif" font-size="14" lengthAdjust="spacing" textLength="43" x="1432.95" y="99.2285">Device</text><line style="stroke:#181818;stroke-width:0.5;" x1="1389" x2="1491" y1="109.5" y2="109.5"/><ellipse cx="1399" cy="123.8047" fill="none" rx="3" ry="3" style="stroke:#038048;stroke-width:1.0;"/><text fill="#000000" font-family="sans-serif" font-size="14" lengthAdjust="spacing" textLength="54" x="1408" y="128.0332">id: string</text><ellipse cx="1399" cy="141.4141" fill="none" rx="3" ry="3" style="stroke:#038048;stroke-width:1.0;"/><text fill="#000000" font-family="sans-serif" font-size="14" lengthAdjust="spacing" textLength="78" x="1408" y="145.6426">name: string</text><line style="stroke:#181818;stroke-width:0.5;" x1="1389" x2="1491" y1="152.7188" y2="152.7188"/></g><!--MD5=[60fb7c891b2aee9e3ad3bc3b3dc71a45]
class HubDevice--><g id="elem_HubDevice"><rect codeLine="15" fill="#F1F1F1" height="48" id="HubDevice" rx="2.5" ry="2.5" style="stroke:#181818;stroke-width:0.5;" width="100" x="457" y="95"/><ellipse cx="472" cy="111" fill="#ADD1B2" rx="11" ry="11" style="stroke:#181818;stroke-width:1.0;"/><path d="M474.7656,106.875 Q474.9219,106.6563 475.1094,106.5469 Q475.2969,106.4375 475.5156,106.4375 Q475.8906,106.4375 476.125,106.6953 Q476.3594,106.9531 476.3594,107.5625 L476.3594,109.0156 Q476.3594,109.625 476.125,109.8906 Q475.8906,110.1563 475.5156,110.1563 Q475.1719,110.1563 474.9688,109.9531 Q474.7656,109.7656 474.6563,109.25 Q474.6094,108.8906 474.4219,108.7031 Q474.0938,108.3281 473.4844,108.1094 Q472.875,107.8906 472.25,107.8906 Q471.4844,107.8906 470.8516,108.2188 Q470.2188,108.5469 469.7266,109.2969 Q469.2344,110.0469 469.2344,111.0781 L469.2344,112.1719 Q469.2344,113.4063 470.125,114.2266 Q471.0156,115.0469 472.6094,115.0469 Q473.5469,115.0469 474.2031,114.7969 Q474.5938,114.6406 475.0156,114.2031 Q475.2813,113.9375 475.4297,113.8594 Q475.5781,113.7813 475.7813,113.7813 Q476.1094,113.7813 476.3672,114.0391 Q476.625,114.2969 476.625,114.6406 Q476.625,114.9844 476.2813,115.3906 Q475.7813,115.9688 474.9844,116.2969 Q473.9063,116.75 472.6094,116.75 Q471.0938,116.75 469.8906,116.125 Q468.9063,115.625 468.2188,114.5547 Q467.5313,113.4844 467.5313,112.2031 L467.5313,111.0469 Q467.5313,109.7188 468.1484,108.5703 Q468.7656,107.4219 469.8594,106.8047 Q470.9531,106.1875 472.1875,106.1875 Q472.9219,106.1875 473.5703,106.3516 Q474.2188,106.5156 474.7656,106.875 Z " fill="#000000"/><text fill="#000000" font-family="sans-serif" font-size="14" lengthAdjust="spacing" textLength="68" x="486" y="116.7285">HubDevice</text><line style="stroke:#181818;stroke-width:0.5;" x1="458" x2="556" y1="127" y2="127"/><line style="stroke:#181818;stroke-width:0.5;" x1="458" x2="556" y1="135" y2="135"/></g><!--MD5=[73ff7e9848ef61b5ec4d2f879d00ed7f]
class SocketDevice--><g id="elem_SocketDevice"><rect codeLine="18" fill="#F1F1F1" height="100.8281" id="SocketDevice" rx="2.5" ry="2.5" style="stroke:#181818;stroke-width:0.5;" width="150" x="592" y="68.5"/><ellipse cx="621.4" cy="84.5" fill="#ADD1B2" rx="11" ry="11" style="stroke:#181818;stroke-width:1.0;"/><path d="M624.1656,80.375 Q624.3219,80.1563 624.5094,80.0469 Q624.6969,79.9375 624.9156,79.9375 Q625.2906,79.9375 625.525,80.1953 Q625.7594,80.4531 625.7594,81.0625 L625.7594,82.5156 Q625.7594,83.125 625.525,83.3906 Q625.2906,83.6563 624.9156,83.6563 Q624.5719,83.6563 624.3688,83.4531 Q624.1656,83.2656 624.0563,82.75 Q624.0094,82.3906 623.8219,82.2031 Q623.4938,81.8281 622.8844,81.6094 Q622.275,81.3906 621.65,81.3906 Q620.8844,81.3906 620.2516,81.7188 Q619.6188,82.0469 619.1266,82.7969 Q618.6344,83.5469 618.6344,84.5781 L618.6344,85.6719 Q618.6344,86.9063 619.525,87.7266 Q620.4156,88.5469 622.0094,88.5469 Q622.9469,88.5469 623.6031,88.2969 Q623.9938,88.1406 624.4156,87.7031 Q624.6813,87.4375 624.8297,87.3594 Q624.9781,87.2813 625.1813,87.2813 Q625.5094,87.2813 625.7672,87.5391 Q626.025,87.7969 626.025,88.1406 Q626.025,88.4844 625.6813,88.8906 Q625.1813,89.4688 624.3844,89.7969 Q623.3063,90.25 622.0094,90.25 Q620.4938,90.25 619.2906,89.625 Q618.3063,89.125 617.6188,88.0547 Q616.9313,86.9844 616.9313,85.7031 L616.9313,84.5469 Q616.9313,83.2188 617.5484,82.0703 Q618.1656,80.9219 619.2594,80.3047 Q620.3531,79.6875 621.5875,79.6875 Q622.3219,79.6875 622.9703,79.8516 Q623.6188,80.0156 624.1656,80.375 Z " fill="#000000"/><text fill="#000000" font-family="sans-serif" font-size="14" lengthAdjust="spacing" textLength="86" x="638.6" y="90.2285">SocketDevice</text><line style="stroke:#181818;stroke-width:0.5;" x1="593" x2="741" y1="100.5" y2="100.5"/><ellipse cx="603" cy="114.8047" fill="none" rx="3" ry="3" style="stroke:#038048;stroke-width:1.0;"/><text fill="#000000" font-family="sans-serif" font-size="14" lengthAdjust="spacing" textLength="124" x="612" y="119.0332">turned_on: boolean</text><ellipse cx="603" cy="132.4141" fill="none" rx="3" ry="3" style="stroke:#038048;stroke-width:1.0;"/><text fill="#000000" font-family="sans-serif" font-size="14" lengthAdjust="spacing" textLength="80" x="612" y="136.6426">group: string</text><ellipse cx="603" cy="150.0234" fill="none" rx="3" ry="3" style="stroke:#038048;stroke-width:1.0;"/><text fill="#000000" font-family="sans-serif" font-size="14" lengthAdjust="spacing" textLength="112" x="612" y="154.252">parent: IoTDevice</text><line style="stroke:#181818;stroke-width:0.5;" x1="593" x2="741" y1="161.3281" y2="161.3281"/></g><!--MD5=[daa2b68c2ccd11ade04004a7970669d1]
class IoTService--><g id="elem_IoTService"><rect codeLine="24" fill="#F1F1F1" height="153.6563" id="IoTService" rx="2.5" ry="2.5" style="stroke:#181818;stroke-width:0.5;" width="575" x="777.5" y="42"/><ellipse cx="1027.25" cy="58" fill="#ADD1B2" rx="11" ry="11" style="stroke:#181818;stroke-width:1.0;"/><path d="M1030.0156,53.875 Q1030.1719,53.6563 1030.3594,53.5469 Q1030.5469,53.4375 1030.7656,53.4375 Q1031.1406,53.4375 1031.375,53.6953 Q1031.6094,53.9531 1031.6094,54.5625 L1031.6094,56.0156 Q1031.6094,56.625 1031.375,56.8906 Q1031.1406,57.1563 1030.7656,57.1563 Q1030.4219,57.1563 1030.2188,56.9531 Q1030.0156,56.7656 1029.9063,56.25 Q1029.8594,55.8906 1029.6719,55.7031 Q1029.3438,55.3281 1028.7344,55.1094 Q1028.125,54.8906 1027.5,54.8906 Q1026.7344,54.8906 1026.1016,55.2188 Q1025.4688,55.5469 1024.9766,56.2969 Q1024.4844,57.0469 1024.4844,58.0781 L1024.4844,59.1719 Q1024.4844,60.4063 1025.375,61.2266 Q1026.2656,62.0469 1027.8594,62.0469 Q1028.7969,62.0469 1029.4531,61.7969 Q1029.8438,61.6406 1030.2656,61.2031 Q1030.5313,60.9375 1030.6797,60.8594 Q1030.8281,60.7813 1031.0313,60.7813 Q1031.3594,60.7813 1031.6172,61.0391 Q1031.875,61.2969 1031.875,61.6406 Q1031.875,61.9844 1031.5313,62.3906 Q1031.0313,62.9688 1030.2344,63.2969 Q1029.1563,63.75 1027.8594,63.75 Q1026.3438,63.75 1025.1406,63.125 Q1024.1563,62.625 1023.4688,61.5547 Q1022.7813,60.4844 1022.7813,59.2031 L1022.7813,58.0469 Q1022.7813,56.7188 1023.3984,55.5703 Q1024.0156,54.4219 1025.1094,53.8047 Q1026.2031,53.1875 1027.4375,53.1875 Q1028.1719,53.1875 1028.8203,53.3516 Q1029.4688,53.5156 1030.0156,53.875 Z " fill="#000000"/><text fill="#000000" font-family="sans-serif" font-size="14" lengthAdjust="spacing" textLength="67" x="1047.75" y="63.7285">IoTService</text><line style="stroke:#181818;stroke-width:0.5;" x1="778.5" x2="1351.5" y1="74" y2="74"/><line style="stroke:#181818;stroke-width:0.5;" x1="778.5" x2="1351.5" y1="82" y2="82"/><ellipse cx="788.5" cy="96.3047" fill="#84BE84" rx="3" ry="3" style="stroke:#038048;stroke-width:1.0;"/><text fill="#000000" font-family="sans-serif" font-size="14" lengthAdjust="spacing" textLength="351" x="797.5" y="100.5332">GetSocketDevicesFromHub(hubIdenfitifer : string) : void</text><ellipse cx="788.5" cy="113.9141" fill="#84BE84" rx="3" ry="3" style="stroke:#038048;stroke-width:1.0;"/><text fill="#000000" font-family="sans-serif" font-size="14" lengthAdjust="spacing" textLength="208" x="797.5" y="118.1426">GetDevices() : Array&lt;IoTDevice&gt;</text><rect fill="#F24D5C" height="6" style="stroke:#C82930;stroke-width:1.0;" width="6" x="785.5" y="128.5234"/><text fill="#000000" font-family="sans-serif" font-size="14" lengthAdjust="spacing" textLength="391" x="797.5" y="135.752">GetFilteredDevices&lt;T extends IoTDevice&gt;(type: T) : Array&lt;T&gt;</text><rect fill="#F24D5C" height="6" style="stroke:#C82930;stroke-width:1.0;" width="6" x="785.5" y="146.1328"/><text fill="#000000" font-family="sans-serif" font-size="14" lengthAdjust="spacing" textLength="265" x="797.5" y="153.3613">GetDeviceById(clientId: string) : IoTDevice</text><rect fill="#F24D5C" height="6" style="stroke:#C82930;stroke-width:1.0;" width="6" x="785.5" y="163.7422"/><text fill="#000000" font-family="sans-serif" font-size="14" lengthAdjust="spacing" textLength="549" x="797.5" y="170.9707">OnSocketStatusResponse(status: DeviceStatusResponse&lt;SocketDeviceStatus&gt;) : void</text><rect fill="#F24D5C" height="6" style="stroke:#C82930;stroke-width:1.0;" width="6" x="785.5" y="181.3516"/><text fill="#000000" font-family="sans-serif" font-size="14" lengthAdjust="spacing" textLength="291" x="797.5" y="188.5801">OnIoTStatusResponse(message: string) : void</text></g><!--MD5=[72fc5309462af0cb4113f0a663401831]
class MqttClientService--><g id="elem_MqttClientService"><rect codeLine="33" fill="#F1F1F1" height="118.4375" id="MqttClientService" rx="2.5" ry="2.5" style="stroke:#181818;stroke-width:0.5;" width="502" x="1141" y="317.5"/><ellipse cx="1332.75" cy="333.5" fill="#ADD1B2" rx="11" ry="11" style="stroke:#181818;stroke-width:1.0;"/><path d="M1335.5156,329.375 Q1335.6719,329.1563 1335.8594,329.0469 Q1336.0469,328.9375 1336.2656,328.9375 Q1336.6406,328.9375 1336.875,329.1953 Q1337.1094,329.4531 1337.1094,330.0625 L1337.1094,331.5156 Q1337.1094,332.125 1336.875,332.3906 Q1336.6406,332.6563 1336.2656,332.6563 Q1335.9219,332.6563 1335.7188,332.4531 Q1335.5156,332.2656 1335.4063,331.75 Q1335.3594,331.3906 1335.1719,331.2031 Q1334.8438,330.8281 1334.2344,330.6094 Q1333.625,330.3906 1333,330.3906 Q1332.2344,330.3906 1331.6016,330.7188 Q1330.9688,331.0469 1330.4766,331.7969 Q1329.9844,332.5469 1329.9844,333.5781 L1329.9844,334.6719 Q1329.9844,335.9063 1330.875,336.7266 Q1331.7656,337.5469 1333.3594,337.5469 Q1334.2969,337.5469 1334.9531,337.2969 Q1335.3438,337.1406 1335.7656,336.7031 Q1336.0313,336.4375 1336.1797,336.3594 Q1336.3281,336.2813 1336.5313,336.2813 Q1336.8594,336.2813 1337.1172,336.5391 Q1337.375,336.7969 1337.375,337.1406 Q1337.375,337.4844 1337.0313,337.8906 Q1336.5313,338.4688 1335.7344,338.7969 Q1334.6563,339.25 1333.3594,339.25 Q1331.8438,339.25 1330.6406,338.625 Q1329.6563,338.125 1328.9688,337.0547 Q1328.2813,335.9844 1328.2813,334.7031 L1328.2813,333.5469 Q1328.2813,332.2188 1328.8984,331.0703 Q1329.5156,329.9219 1330.6094,329.3047 Q1331.7031,328.6875 1332.9375,328.6875 Q1333.6719,328.6875 1334.3203,328.8516 Q1334.9688,329.0156 1335.5156,329.375 Z " fill="#000000"/><text fill="#000000" font-family="sans-serif" font-size="14" lengthAdjust="spacing" textLength="110" x="1353.25" y="339.2285">MqttClientService</text><line style="stroke:#181818;stroke-width:0.5;" x1="1142" x2="1642" y1="349.5" y2="349.5"/><rect fill="none" height="6" style="stroke:#C82930;stroke-width:1.0;" width="6" x="1149" y="360.8047"/><text fill="#000000" font-family="sans-serif" font-size="14" lengthAdjust="spacing" textLength="115" x="1161" y="368.0332">client: MqttService</text><line style="stroke:#181818;stroke-width:0.5;" x1="1142" x2="1642" y1="375.1094" y2="375.1094"/><ellipse cx="1152" cy="389.4141" fill="#84BE84" rx="3" ry="3" style="stroke:#038048;stroke-width:1.0;"/><text fill="#000000" font-family="sans-serif" font-size="14" lengthAdjust="spacing" textLength="253" x="1161" y="393.6426">Publish(target: string, data: string) : void</text><ellipse cx="1152" cy="407.0234" fill="#84BE84" rx="3" ry="3" style="stroke:#038048;stroke-width:1.0;"/><text fill="#000000" font-family="sans-serif" font-size="14" lengthAdjust="spacing" textLength="476" x="1161" y="411.252">Subscribe(target: string, onMessageFunc: (message : string) =&gt; void) : void</text><rect fill="#F24D5C" height="6" style="stroke:#C82930;stroke-width:1.0;" width="6" x="1149" y="421.6328"/><text fill="#000000" font-family="sans-serif" font-size="14" lengthAdjust="spacing" textLength="240" x="1161" y="428.8613">CreateOptions() : IMqttServiceOptions</text></g><!--MD5=[90ecfadb9f5de79fdadebdad7ca16777]
class SocketDeviceService--><g id="elem_SocketDeviceService"><rect codeLine="41" fill="#F1F1F1" height="136.0469" id="SocketDeviceService" rx="2.5" ry="2.5" style="stroke:#181818;stroke-width:0.5;" width="361" x="1527.5" y="51"/><ellipse cx="1637.25" cy="67" fill="#ADD1B2" rx="11" ry="11" style="stroke:#181818;stroke-width:1.0;"/><path d="M1640.0156,62.875 Q1640.1719,62.6563 1640.3594,62.5469 Q1640.5469,62.4375 1640.7656,62.4375 Q1641.1406,62.4375 1641.375,62.6953 Q1641.6094,62.9531 1641.6094,63.5625 L1641.6094,65.0156 Q1641.6094,65.625 1641.375,65.8906 Q1641.1406,66.1563 1640.7656,66.1563 Q1640.4219,66.1563 1640.2188,65.9531 Q1640.0156,65.7656 1639.9063,65.25 Q1639.8594,64.8906 1639.6719,64.7031 Q1639.3438,64.3281 1638.7344,64.1094 Q1638.125,63.8906 1637.5,63.8906 Q1636.7344,63.8906 1636.1016,64.2188 Q1635.4688,64.5469 1634.9766,65.2969 Q1634.4844,66.0469 1634.4844,67.0781 L1634.4844,68.1719 Q1634.4844,69.4063 1635.375,70.2266 Q1636.2656,71.0469 1637.8594,71.0469 Q1638.7969,71.0469 1639.4531,70.7969 Q1639.8438,70.6406 1640.2656,70.2031 Q1640.5313,69.9375 1640.6797,69.8594 Q1640.8281,69.7813 1641.0313,69.7813 Q1641.3594,69.7813 1641.6172,70.0391 Q1641.875,70.2969 1641.875,70.6406 Q1641.875,70.9844 1641.5313,71.3906 Q1641.0313,71.9688 1640.2344,72.2969 Q1639.1563,72.75 1637.8594,72.75 Q1636.3438,72.75 1635.1406,72.125 Q1634.1563,71.625 1633.4688,70.5547 Q1632.7813,69.4844 1632.7813,68.2031 L1632.7813,67.0469 Q1632.7813,65.7188 1633.3984,64.5703 Q1634.0156,63.4219 1635.1094,62.8047 Q1636.2031,62.1875 1637.4375,62.1875 Q1638.1719,62.1875 1638.8203,62.3516 Q1639.4688,62.5156 1640.0156,62.875 Z " fill="#000000"/><text fill="#000000" font-family="sans-serif" font-size="14" lengthAdjust="spacing" textLength="133" x="1657.75" y="72.7285">SocketDeviceService</text><line style="stroke:#181818;stroke-width:0.5;" x1="1528.5" x2="1887.5" y1="83" y2="83"/><rect fill="none" height="6" style="stroke:#C82930;stroke-width:1.0;" width="6" x="1535.5" y="94.3047"/><text fill="#000000" font-family="sans-serif" font-size="14" lengthAdjust="spacing" textLength="321" x="1547.5" y="101.5332">requestConverter: SocketDeviceRequestConverter</text><rect fill="none" height="6" style="stroke:#C82930;stroke-width:1.0;" width="6" x="1535.5" y="111.9141"/><text fill="#000000" font-family="sans-serif" font-size="14" lengthAdjust="spacing" textLength="261" x="1547.5" y="119.1426">mqttService {readonly}: MqttClientService</text><line style="stroke:#181818;stroke-width:0.5;" x1="1528.5" x2="1887.5" y1="126.2188" y2="126.2188"/><ellipse cx="1538.5" cy="140.5234" fill="#84BE84" rx="3" ry="3" style="stroke:#038048;stroke-width:1.0;"/><text fill="#000000" font-family="sans-serif" font-size="14" lengthAdjust="spacing" textLength="335" x="1547.5" y="144.752">SocketDeviceService(mqttService: MqttClientService)</text><ellipse cx="1538.5" cy="158.1328" fill="#84BE84" rx="3" ry="3" style="stroke:#038048;stroke-width:1.0;"/><text fill="#000000" font-family="sans-serif" font-size="14" lengthAdjust="spacing" textLength="177" x="1547.5" y="162.3613">TurnOff(target: string) : void</text><ellipse cx="1538.5" cy="175.7422" fill="#84BE84" rx="3" ry="3" style="stroke:#038048;stroke-width:1.0;"/><text fill="#000000" font-family="sans-serif" font-size="14" lengthAdjust="spacing" textLength="177" x="1547.5" y="179.9707">TurnOn(target: string) : void</text></g><!--MD5=[4fde3b625d8ed61b9f428dd3d7567c7c]
class SocketDeviceRequestConverter--><g id="elem_SocketDeviceRequestConverter"><rect codeLine="50" fill="#F1F1F1" height="83.2188" id="SocketDeviceRequestConverter" rx="2.5" ry="2.5" style="stroke:#181818;stroke-width:0.5;" width="233" x="1678.5" y="335"/><ellipse cx="1693.5" cy="351" fill="#B4A7E5" rx="11" ry="11" style="stroke:#181818;stroke-width:1.0;"/><path d="M1694.4531,347.6406 L1694.4531,354.2969 L1696.1719,354.2969 Q1696.7813,354.2969 1697.0469,354.5313 Q1697.3125,354.7656 1697.3125,355.1563 Q1697.3125,355.5313 1697.0469,355.7656 Q1696.7813,356 1696.1719,356 L1691.0313,356 Q1690.4219,356 1690.1563,355.7656 Q1689.8906,355.5313 1689.8906,355.1406 Q1689.8906,354.7656 1690.1563,354.5313 Q1690.4219,354.2969 1691.0313,354.2969 L1692.75,354.2969 L1692.75,347.6406 L1691.0313,347.6406 Q1690.4219,347.6406 1690.1563,347.4063 Q1689.8906,347.1719 1689.8906,346.7813 Q1689.8906,346.4063 1690.1563,346.1719 Q1690.4219,345.9375 1691.0313,345.9375 L1696.1719,345.9375 Q1696.7813,345.9375 1697.0469,346.1719 Q1697.3125,346.4063 1697.3125,346.7813 Q1697.3125,347.1719 1697.0469,347.4063 Q1696.7813,347.6406 1696.1719,347.6406 L1694.4531,347.6406 Z " fill="#000000"/><text fill="#000000" font-family="sans-serif" font-size="14" font-style="italic" lengthAdjust="spacing" textLength="201" x="1707.5" y="356.7285">SocketDeviceRequestConverter</text><line style="stroke:#181818;stroke-width:0.5;" x1="1679.5" x2="1910.5" y1="367" y2="367"/><line style="stroke:#181818;stroke-width:0.5;" x1="1679.5" x2="1910.5" y1="375" y2="375"/><ellipse cx="1689.5" cy="389.3047" fill="#84BE84" rx="3" ry="3" style="stroke:#038048;stroke-width:1.0;"/><text fill="#000000" font-family="sans-serif" font-size="14" lengthAdjust="spacing" textLength="106" x="1698.5" y="393.5332">TurnOn() : string</text><ellipse cx="1689.5" cy="406.9141" fill="#84BE84" rx="3" ry="3" style="stroke:#038048;stroke-width:1.0;"/><text fill="#000000" font-family="sans-serif" font-size="14" lengthAdjust="spacing" textLength="106" x="1698.5" y="411.1426">TurnOff() : string</text></g><!--MD5=[b8b8d4a2ff17407423008125e6a0930e]
class HubSearcherComponent--><g id="elem_HubSearcherComponent"><rect codeLine="55" fill="#F1F1F1" height="224.0938" id="HubSearcherComponent" rx="2.5" ry="2.5" style="stroke:#181818;stroke-width:0.5;" width="593" x="1923.5" y="7"/><ellipse cx="2137.75" cy="23" fill="#ADD1B2" rx="11" ry="11" style="stroke:#181818;stroke-width:1.0;"/><path d="M2140.5156,18.875 Q2140.6719,18.6563 2140.8594,18.5469 Q2141.0469,18.4375 2141.2656,18.4375 Q2141.6406,18.4375 2141.875,18.6953 Q2142.1094,18.9531 2142.1094,19.5625 L2142.1094,21.0156 Q2142.1094,21.625 2141.875,21.8906 Q2141.6406,22.1563 2141.2656,22.1563 Q2140.9219,22.1563 2140.7188,21.9531 Q2140.5156,21.7656 2140.4063,21.25 Q2140.3594,20.8906 2140.1719,20.7031 Q2139.8438,20.3281 2139.2344,20.1094 Q2138.625,19.8906 2138,19.8906 Q2137.2344,19.8906 2136.6016,20.2188 Q2135.9688,20.5469 2135.4766,21.2969 Q2134.9844,22.0469 2134.9844,23.0781 L2134.9844,24.1719 Q2134.9844,25.4063 2135.875,26.2266 Q2136.7656,27.0469 2138.3594,27.0469 Q2139.2969,27.0469 2139.9531,26.7969 Q2140.3438,26.6406 2140.7656,26.2031 Q2141.0313,25.9375 2141.1797,25.8594 Q2141.3281,25.7813 2141.5313,25.7813 Q2141.8594,25.7813 2142.1172,26.0391 Q2142.375,26.2969 2142.375,26.6406 Q2142.375,26.9844 2142.0313,27.3906 Q2141.5313,27.9688 2140.7344,28.2969 Q2139.6563,28.75 2138.3594,28.75 Q2136.8438,28.75 2135.6406,28.125 Q2134.6563,27.625 2133.9688,26.5547 Q2133.2813,25.4844 2133.2813,24.2031 L2133.2813,23.0469 Q2133.2813,21.7188 2133.8984,20.5703 Q2134.5156,19.4219 2135.6094,18.8047 Q2136.7031,18.1875 2137.9375,18.1875 Q2138.6719,18.1875 2139.3203,18.3516 Q2139.9688,18.5156 2140.5156,18.875 Z " fill="#000000"/><text fill="#000000" font-family="sans-serif" font-size="14" lengthAdjust="spacing" textLength="156" x="2158.25" y="28.7285">HubSearcherComponent</text><line style="stroke:#181818;stroke-width:0.5;" x1="1924.5" x2="2515.5" y1="39" y2="39"/><text fill="#000000" font-family="sans-serif" font-size="14" lengthAdjust="spacing" textLength="72" x="1929.5" y="57.5332">ssid : string</text><text fill="#000000" font-family="sans-serif" font-size="14" lengthAdjust="spacing" textLength="121" x="1929.5" y="75.1426">passphrase : string</text><text fill="#000000" font-family="sans-serif" font-size="14" lengthAdjust="spacing" textLength="76" x="1929.5" y="92.752">device : any</text><line style="stroke:#181818;stroke-width:0.5;" x1="1924.5" x2="2515.5" y1="99.8281" y2="99.8281"/><text fill="#000000" font-family="sans-serif" font-size="14" lengthAdjust="spacing" textLength="581" x="1929.5" y="118.3613">HubSearcherComponent(_zone: NgZone, _hubConnService: HubConnServiceService) : void</text><text fill="#000000" font-family="sans-serif" font-size="14" lengthAdjust="spacing" textLength="382" x="1929.5" y="135.9707">connected(value: BluetoothRemoteGATTCharacteristic) void</text><text fill="#000000" font-family="sans-serif" font-size="14" lengthAdjust="spacing" textLength="98" x="1929.5" y="153.5801">connect() : void</text><text fill="#000000" font-family="sans-serif" font-size="14" lengthAdjust="spacing" textLength="128" x="1929.5" y="171.1895">selectDevice() : void</text><text fill="#000000" font-family="sans-serif" font-size="14" lengthAdjust="spacing" textLength="110" x="1929.5" y="188.7988">sendinput() : void</text><text fill="#000000" font-family="sans-serif" font-size="14" lengthAdjust="spacing" textLength="185" x="1929.5" y="206.4082">onSsidKey(event : any) : void</text><text fill="#000000" font-family="sans-serif" font-size="14" lengthAdjust="spacing" textLength="230" x="1929.5" y="224.0176">onPassPhraseKey(event: any) : void</text></g><!--MD5=[4f63d11415da6fdc2fc6373cefe9e6de]
class HubConnServiceService--><g id="elem_HubConnServiceService"><rect codeLine="69" fill="#F1F1F1" height="171.2656" id="HubConnServiceService" rx="2.5" ry="2.5" style="stroke:#181818;stroke-width:0.5;" width="372" x="2034" y="291"/><ellipse cx="2139.25" cy="307" fill="#ADD1B2" rx="11" ry="11" style="stroke:#181818;stroke-width:1.0;"/><path d="M2142.0156,302.875 Q2142.1719,302.6563 2142.3594,302.5469 Q2142.5469,302.4375 2142.7656,302.4375 Q2143.1406,302.4375 2143.375,302.6953 Q2143.6094,302.9531 2143.6094,303.5625 L2143.6094,305.0156 Q2143.6094,305.625 2143.375,305.8906 Q2143.1406,306.1563 2142.7656,306.1563 Q2142.4219,306.1563 2142.2188,305.9531 Q2142.0156,305.7656 2141.9063,305.25 Q2141.8594,304.8906 2141.6719,304.7031 Q2141.3438,304.3281 2140.7344,304.1094 Q2140.125,303.8906 2139.5,303.8906 Q2138.7344,303.8906 2138.1016,304.2188 Q2137.4688,304.5469 2136.9766,305.2969 Q2136.4844,306.0469 2136.4844,307.0781 L2136.4844,308.1719 Q2136.4844,309.4063 2137.375,310.2266 Q2138.2656,311.0469 2139.8594,311.0469 Q2140.7969,311.0469 2141.4531,310.7969 Q2141.8438,310.6406 2142.2656,310.2031 Q2142.5313,309.9375 2142.6797,309.8594 Q2142.8281,309.7813 2143.0313,309.7813 Q2143.3594,309.7813 2143.6172,310.0391 Q2143.875,310.2969 2143.875,310.6406 Q2143.875,310.9844 2143.5313,311.3906 Q2143.0313,311.9688 2142.2344,312.2969 Q2141.1563,312.75 2139.8594,312.75 Q2138.3438,312.75 2137.1406,312.125 Q2136.1563,311.625 2135.4688,310.5547 Q2134.7813,309.4844 2134.7813,308.2031 L2134.7813,307.0469 Q2134.7813,305.7188 2135.3984,304.5703 Q2136.0156,303.4219 2137.1094,302.8047 Q2138.2031,302.1875 2139.4375,302.1875 Q2140.1719,302.1875 2140.8203,302.3516 Q2141.4688,302.5156 2142.0156,302.875 Z " fill="#000000"/><text fill="#000000" font-family="sans-serif" font-size="14" lengthAdjust="spacing" textLength="153" x="2159.75" y="312.7285">HubConnServiceService</text><line style="stroke:#181818;stroke-width:0.5;" x1="2035" x2="2405" y1="323" y2="323"/><text fill="#000000" font-family="sans-serif" font-size="14" lengthAdjust="spacing" textLength="310" x="2040" y="341.5332">GATT_CHARACTERISTIC_CONNECTION : string</text><text fill="#000000" font-family="sans-serif" font-size="14" lengthAdjust="spacing" textLength="221" x="2040" y="359.1426">GATT_PRIMARY_SERVICE : string</text><text fill="#000000" font-family="sans-serif" font-size="14" lengthAdjust="spacing" textLength="95" x="2040" y="376.752">character : any</text><line style="stroke:#181818;stroke-width:0.5;" x1="2035" x2="2405" y1="383.8281" y2="383.8281"/><text fill="#000000" font-family="sans-serif" font-size="14" lengthAdjust="spacing" textLength="281" x="2040" y="402.3613">HubConnServiceService(ble: BluetoothCore)</text><text fill="#000000" font-family="sans-serif" font-size="14" lengthAdjust="spacing" textLength="360" x="2040" y="419.9707">getCharConnect() : BluetoothRemoteGATTCharacteristic</text><text fill="#000000" font-family="sans-serif" font-size="14" lengthAdjust="spacing" textLength="339" x="2040" y="437.5801">getCharacter() : BluetoothRemoteGATTCharacteristic</text><text fill="#000000" font-family="sans-serif" font-size="14" lengthAdjust="spacing" textLength="188" x="2040" y="455.1895">getDevice() : BluetoothDevice</text></g><!--MD5=[3fd616f346a44cd59a91eb10b19e157c]
class User--><g id="elem_User"><rect codeLine="80" fill="#F1F1F1" height="136.0469" id="User" rx="2.5" ry="2.5" style="stroke:#181818;stroke-width:0.5;" width="136" x="2441" y="308.5"/><ellipse cx="2490.25" cy="324.5" fill="#ADD1B2" rx="11" ry="11" style="stroke:#181818;stroke-width:1.0;"/><path d="M2493.0156,320.375 Q2493.1719,320.1563 2493.3594,320.0469 Q2493.5469,319.9375 2493.7656,319.9375 Q2494.1406,319.9375 2494.375,320.1953 Q2494.6094,320.4531 2494.6094,321.0625 L2494.6094,322.5156 Q2494.6094,323.125 2494.375,323.3906 Q2494.1406,323.6563 2493.7656,323.6563 Q2493.4219,323.6563 2493.2188,323.4531 Q2493.0156,323.2656 2492.9063,322.75 Q2492.8594,322.3906 2492.6719,322.2031 Q2492.3438,321.8281 2491.7344,321.6094 Q2491.125,321.3906 2490.5,321.3906 Q2489.7344,321.3906 2489.1016,321.7188 Q2488.4688,322.0469 2487.9766,322.7969 Q2487.4844,323.5469 2487.4844,324.5781 L2487.4844,325.6719 Q2487.4844,326.9063 2488.375,327.7266 Q2489.2656,328.5469 2490.8594,328.5469 Q2491.7969,328.5469 2492.4531,328.2969 Q2492.8438,328.1406 2493.2656,327.7031 Q2493.5313,327.4375 2493.6797,327.3594 Q2493.8281,327.2813 2494.0313,327.2813 Q2494.3594,327.2813 2494.6172,327.5391 Q2494.875,327.7969 2494.875,328.1406 Q2494.875,328.4844 2494.5313,328.8906 Q2494.0313,329.4688 2493.2344,329.7969 Q2492.1563,330.25 2490.8594,330.25 Q2489.3438,330.25 2488.1406,329.625 Q2487.1563,329.125 2486.4688,328.0547 Q2485.7813,326.9844 2485.7813,325.7031 L2485.7813,324.5469 Q2485.7813,323.2188 2486.3984,322.0703 Q2487.0156,320.9219 2488.1094,320.3047 Q2489.2031,319.6875 2490.4375,319.6875 Q2491.1719,319.6875 2491.8203,319.8516 Q2492.4688,320.0156 2493.0156,320.375 Z " fill="#000000"/><text fill="#000000" font-family="sans-serif" font-size="14" lengthAdjust="spacing" textLength="29" x="2510.75" y="330.2285">User</text><line style="stroke:#181818;stroke-width:0.5;" x1="2442" x2="2576" y1="340.5" y2="340.5"/><ellipse cx="2452" cy="354.8047" fill="none" rx="3" ry="3" style="stroke:#038048;stroke-width:1.0;"/><text fill="#000000" font-family="sans-serif" font-size="14" lengthAdjust="spacing" textLength="110" x="2461" y="359.0332">username : string</text><ellipse cx="2452" cy="372.4141" fill="none" rx="3" ry="3" style="stroke:#038048;stroke-width:1.0;"/><text fill="#000000" font-family="sans-serif" font-size="14" lengthAdjust="spacing" textLength="107" x="2461" y="376.6426">password : string</text><ellipse cx="2452" cy="390.0234" fill="none" rx="3" ry="3" style="stroke:#038048;stroke-width:1.0;"/><text fill="#000000" font-family="sans-serif" font-size="14" lengthAdjust="spacing" textLength="80" x="2461" y="394.252">email : string</text><ellipse cx="2452" cy="407.6328" fill="none" rx="3" ry="3" style="stroke:#038048;stroke-width:1.0;"/><text fill="#000000" font-family="sans-serif" font-size="14" lengthAdjust="spacing" textLength="106" x="2461" y="411.8613">firstName : string</text><ellipse cx="2452" cy="425.2422" fill="none" rx="3" ry="3" style="stroke:#038048;stroke-width:1.0;"/><text fill="#000000" font-family="sans-serif" font-size="14" lengthAdjust="spacing" textLength="105" x="2461" y="429.4707">lastName : string</text><line style="stroke:#181818;stroke-width:0.5;" x1="2442" x2="2576" y1="436.5469" y2="436.5469"/></g><!--MD5=[88f66da615ead437be96f70edff3214c]
class UserToken--><g id="elem_UserToken"><rect codeLine="88" fill="#F1F1F1" height="65.6094" id="UserToken" rx="2.5" ry="2.5" style="stroke:#181818;stroke-width:0.5;" width="108" x="2641" y="86"/><ellipse cx="2659.15" cy="102" fill="#ADD1B2" rx="11" ry="11" style="stroke:#181818;stroke-width:1.0;"/><path d="M2661.9156,97.875 Q2662.0719,97.6563 2662.2594,97.5469 Q2662.4469,97.4375 2662.6656,97.4375 Q2663.0406,97.4375 2663.275,97.6953 Q2663.5094,97.9531 2663.5094,98.5625 L2663.5094,100.0156 Q2663.5094,100.625 2663.275,100.8906 Q2663.0406,101.1563 2662.6656,101.1563 Q2662.3219,101.1563 2662.1188,100.9531 Q2661.9156,100.7656 2661.8063,100.25 Q2661.7594,99.8906 2661.5719,99.7031 Q2661.2438,99.3281 2660.6344,99.1094 Q2660.025,98.8906 2659.4,98.8906 Q2658.6344,98.8906 2658.0016,99.2188 Q2657.3688,99.5469 2656.8766,100.2969 Q2656.3844,101.0469 2656.3844,102.0781 L2656.3844,103.1719 Q2656.3844,104.4063 2657.275,105.2266 Q2658.1656,106.0469 2659.7594,106.0469 Q2660.6969,106.0469 2661.3531,105.7969 Q2661.7438,105.6406 2662.1656,105.2031 Q2662.4313,104.9375 2662.5797,104.8594 Q2662.7281,104.7813 2662.9313,104.7813 Q2663.2594,104.7813 2663.5172,105.0391 Q2663.775,105.2969 2663.775,105.6406 Q2663.775,105.9844 2663.4313,106.3906 Q2662.9313,106.9688 2662.1344,107.2969 Q2661.0563,107.75 2659.7594,107.75 Q2658.2438,107.75 2657.0406,107.125 Q2656.0563,106.625 2655.3688,105.5547 Q2654.6813,104.4844 2654.6813,103.2031 L2654.6813,102.0469 Q2654.6813,100.7188 2655.2984,99.5703 Q2655.9156,98.4219 2657.0094,97.8047 Q2658.1031,97.1875 2659.3375,97.1875 Q2660.0719,97.1875 2660.7203,97.3516 Q2661.3688,97.5156 2661.9156,97.875 Z " fill="#000000"/><text fill="#000000" font-family="sans-serif" font-size="14" lengthAdjust="spacing" textLength="69" x="2673.85" y="107.7285">UserToken</text><line style="stroke:#181818;stroke-width:0.5;" x1="2642" x2="2748" y1="118" y2="118"/><ellipse cx="2652" cy="132.3047" fill="none" rx="3" ry="3" style="stroke:#038048;stroke-width:1.0;"/><text fill="#000000" font-family="sans-serif" font-size="14" lengthAdjust="spacing" textLength="82" x="2661" y="136.5332">token : string</text><line style="stroke:#181818;stroke-width:0.5;" x1="2642" x2="2748" y1="143.6094" y2="143.6094"/></g><!--MD5=[d3d5e8e02b04d835724adf8c28d337f5]
class UserRegisterService--><g id="elem_UserRegisterService"><rect codeLine="92" fill="#F1F1F1" height="83.2188" id="UserRegisterService" rx="2.5" ry="2.5" style="stroke:#181818;stroke-width:0.5;" width="342" x="2612" y="335"/><ellipse cx="2714.25" cy="351" fill="#ADD1B2" rx="11" ry="11" style="stroke:#181818;stroke-width:1.0;"/><path d="M2717.0156,346.875 Q2717.1719,346.6563 2717.3594,346.5469 Q2717.5469,346.4375 2717.7656,346.4375 Q2718.1406,346.4375 2718.375,346.6953 Q2718.6094,346.9531 2718.6094,347.5625 L2718.6094,349.0156 Q2718.6094,349.625 2718.375,349.8906 Q2718.1406,350.1563 2717.7656,350.1563 Q2717.4219,350.1563 2717.2188,349.9531 Q2717.0156,349.7656 2716.9063,349.25 Q2716.8594,348.8906 2716.6719,348.7031 Q2716.3438,348.3281 2715.7344,348.1094 Q2715.125,347.8906 2714.5,347.8906 Q2713.7344,347.8906 2713.1016,348.2188 Q2712.4688,348.5469 2711.9766,349.2969 Q2711.4844,350.0469 2711.4844,351.0781 L2711.4844,352.1719 Q2711.4844,353.4063 2712.375,354.2266 Q2713.2656,355.0469 2714.8594,355.0469 Q2715.7969,355.0469 2716.4531,354.7969 Q2716.8438,354.6406 2717.2656,354.2031 Q2717.5313,353.9375 2717.6797,353.8594 Q2717.8281,353.7813 2718.0313,353.7813 Q2718.3594,353.7813 2718.6172,354.0391 Q2718.875,354.2969 2718.875,354.6406 Q2718.875,354.9844 2718.5313,355.3906 Q2718.0313,355.9688 2717.2344,356.2969 Q2716.1563,356.75 2714.8594,356.75 Q2713.3438,356.75 2712.1406,356.125 Q2711.1563,355.625 2710.4688,354.5547 Q2709.7813,353.4844 2709.7813,352.2031 L2709.7813,351.0469 Q2709.7813,349.7188 2710.3984,348.5703 Q2711.0156,347.4219 2712.1094,346.8047 Q2713.2031,346.1875 2714.4375,346.1875 Q2715.1719,346.1875 2715.8203,346.3516 Q2716.4688,346.5156 2717.0156,346.875 Z " fill="#000000"/><text fill="#000000" font-family="sans-serif" font-size="14" lengthAdjust="spacing" textLength="129" x="2734.75" y="356.7285">UserRegisterService</text><line style="stroke:#181818;stroke-width:0.5;" x1="2613" x2="2953" y1="367" y2="367"/><line style="stroke:#181818;stroke-width:0.5;" x1="2613" x2="2953" y1="375" y2="375"/><ellipse cx="2623" cy="389.3047" fill="#84BE84" rx="3" ry="3" style="stroke:#038048;stroke-width:1.0;"/><text fill="#000000" font-family="sans-serif" font-size="14" lengthAdjust="spacing" textLength="229" x="2632" y="393.5332">createUser(user : User) : UserToken</text><ellipse cx="2623" cy="406.9141" fill="#84BE84" rx="3" ry="3" style="stroke:#038048;stroke-width:1.0;"/><text fill="#000000" font-family="sans-serif" font-size="14" lengthAdjust="spacing" textLength="316" x="2632" y="411.1426">saveCreatedUser(createdUser : UserToken) : void</text></g><!--MD5=[8216a042fc7af2ca1b54eaa89fc73879]
link UserToken to User--><g id="link_UserToken_User"><path codeLine="97" d="M2671.63,152.1 C2646.23,186.99 2604.62,244.15 2569.85,291.91 " fill="none" id="UserToken-to-User" style="stroke:#181818;stroke-width:1.0;"/><polygon fill="none" points="2575.3,296.32,2557.87,308.36,2563.99,288.08,2575.3,296.32" style="stroke:#181818;stroke-width:1.0;"/></g><!--MD5=[ec2e25ebd2f7d37ea24fc01f2fbf1b06]
reverse link UserToken to UserRegisterService--><g id="link_UserToken_UserRegisterService"><path codeLine="98" d="M2707.69,156.85 C2723.98,204.13 2752.13,285.88 2769.02,334.9 " fill="none" id="UserToken-backto-UserRegisterService" style="stroke:#181818;stroke-width:1.0;"/><polygon fill="#181818" points="2706.06,152.1,2705.2088,161.912,2707.6882,156.8275,2712.7727,159.3069,2706.06,152.1" style="stroke:#181818;stroke-width:1.0;"/></g><!--MD5=[f8b47428fd567abe0a2e65888520c4c2]
link HubDevice to IoTDevice--><g id="link_HubDevice_IoTDevice"><path codeLine="99" d="M520.67,143.08 C534.07,165.61 555.19,200.82 574,231 C592.8,261.16 614.24,294.54 631.8,321.61 " fill="none" id="HubDevice-to-IoTDevice" style="stroke:#181818;stroke-width:1.0;stroke-dasharray:7.0,7.0;"/><polygon fill="#181818" points="634.58,325.9,633.0545,316.17,631.8661,321.7006,626.3355,320.5122,634.58,325.9" style="stroke:#181818;stroke-width:1.0;"/></g><!--MD5=[6af555555dd13b43b662c68a47de73d6]
link SocketDevice to IoTDevice--><g id="link_SocketDevice_IoTDevice"><path codeLine="100" d="M667,169.57 C667,212.88 667,275.69 667,320.53 " fill="none" id="SocketDevice-to-IoTDevice" style="stroke:#181818;stroke-width:1.0;stroke-dasharray:7.0,7.0;"/><polygon fill="#181818" points="667,325.64,671,316.64,667,320.64,663,316.64,667,325.64" style="stroke:#181818;stroke-width:1.0;"/></g><!--MD5=[cc8e9c21e698333532253ee833f9d808]
reverse link SocketDeviceService to SocketDeviceRequestConverter--><g id="link_SocketDeviceService_SocketDeviceRequestConverter"><path codeLine="101" d="M1735.07,199.5 C1750.34,244.33 1768.76,298.45 1781.12,334.74 " fill="none" id="SocketDeviceService-backto-SocketDeviceRequestConverter" style="stroke:#181818;stroke-width:1.0;"/><polygon fill="#181818" points="1730.86,187.13,1729.0037,194.0981,1734.7219,198.4916,1736.5781,191.5235,1730.86,187.13" style="stroke:#181818;stroke-width:1.0;"/></g><!--MD5=[c913ee6bba6902643ea26bbdb552f7bb]
reverse link SocketDeviceService to MqttClientService--><g id="link_SocketDeviceService_MqttClientService"><path codeLine="102" d="M1614.83,195.33 C1566.54,234.37 1508.49,281.31 1463.74,317.49 " fill="none" id="SocketDeviceService-backto-MqttClientService" style="stroke:#181818;stroke-width:1.0;"/><polygon fill="none" points="1624.97,187.13,1617.7901,187.8003,1615.6474,194.6857,1622.8272,194.0154,1624.97,187.13" style="stroke:#181818;stroke-width:1.0;"/></g><!--MD5=[83e625f0524529df2751e6e3a9d7f72e]
link IoTService to IoTDevice--><g id="link_IoTService_IoTDevice"><path codeLine="103" d="M946.4,196.14 C880.99,238.13 801.65,289.06 744.26,325.9 " fill="none" id="IoTService-IoTDevice" style="stroke:#181818;stroke-width:1.0;"/></g><!--MD5=[c8b3cffdbc0c3362e2280be427461d98]
reverse link HubSearcherComponent to HubConnServiceService--><g id="link_HubSearcherComponent_HubConnServiceService"><path codeLine="104" d="M2220,244.44 C2220,260.1 2220,275.83 2220,290.68 " fill="none" id="HubSearcherComponent-backto-HubConnServiceService" style="stroke:#181818;stroke-width:1.0;"/><polygon fill="#181818" points="2220,231.32,2216,237.32,2220,243.32,2224,237.32,2220,231.32" style="stroke:#181818;stroke-width:1.0;"/></g><!--MD5=[7b59f8fb338e889045563dbacab14dd5]
@startuml Webclient

note "SocketDeviceRequestConverter will not have implementations shown\nMqttService is a third party library\nDto's will not be shown in this diagram." as n1

interface IoTDevice {
    +name: string
    +status: boolean
    +mac_address: string
}

class Device {
    +id: string
    +name: string
}

class HubDevice {
}

class SocketDevice {
    +turned_on: boolean
    +group: string
    +parent: IoTDevice
}

class IoTService {
    +GetSocketDevicesFromHub(hubIdenfitifer : string) : void
    +GetDevices() : Array<IoTDevice>
    -GetFilteredDevices<T extends IoTDevice>(type: T) : Array<T>
    -GetDeviceById(clientId: string) : IoTDevice
    -OnSocketStatusResponse(status: DeviceStatusResponse<SocketDeviceStatus>) : void
    -OnIoTStatusResponse(message: string) : void
}

class MqttClientService {
  -client: MqttService

  +Publish(target: string, data: string) : void
  +Subscribe(target: string, onMessageFunc: (message : string) => void) : void
  -CreateOptions() : IMqttServiceOptions
}

class SocketDeviceService {
  -requestConverter: SocketDeviceRequestConverter
  -mqttService {readonly}: MqttClientService

  +SocketDeviceService(mqttService: MqttClientService) 
  +TurnOff(target: string) : void
  +TurnOn(target: string) : void
}

interface SocketDeviceRequestConverter {
    +TurnOn() : string
    +TurnOff() : string
}

class HubSearcherComponent{
    ssid : string
    passphrase : string
    device : any

    HubSearcherComponent(_zone: NgZone, _hubConnService: HubConnServiceService) : void
    connected(value: BluetoothRemoteGATTCharacteristic) void
    connect() : void
    selectDevice() : void
    sendinput() : void
    onSsidKey(event : any) : void
    onPassPhraseKey(event: any) : void
}

class HubConnServiceService{
    GATT_CHARACTERISTIC_CONNECTION : string
    GATT_PRIMARY_SERVICE : string
    character : any

    HubConnServiceService(ble: BluetoothCore)
    getCharConnect() : BluetoothRemoteGATTCharacteristic
    getCharacter() : BluetoothRemoteGATTCharacteristic
    getDevice() : BluetoothDevice
}

class User{
    +username : string
    +password : string
    +email : string
    +firstName : string
    +lastName : string
}

class UserToken{
    +token : string
}

class UserRegisterService{
    +createUser(user : User) : UserToken
    +saveCreatedUser(createdUser : UserToken) : void
}

UserToken - -|> User
UserToken <- - UserRegisterService
HubDevice ..> IoTDevice
SocketDevice ..> IoTDevice
SocketDeviceService *- - SocketDeviceRequestConverter
SocketDeviceService o- - MqttClientService
IoTService - - IoTDevice
HubSearcherComponent *- - HubConnServiceService

@enduml

PlantUML version 1.2022.7(Mon Aug 22 19:01:30 CEST 2022)
(GPL source distribution)
Java Runtime: Java(TM) SE Runtime Environment
JVM: Java HotSpot(TM) 64-Bit Server VM
Default Encoding: Cp1252
Language: en
Country: US
--></g></svg>