<?xml version="1.0" encoding="UTF-8" standalone="no"?><svg xmlns="http://www.w3.org/2000/svg" xmlns:xlink="http://www.w3.org/1999/xlink" contentStyleType="text/css" height="591px" preserveAspectRatio="none" style="width:519px;height:591px;background:#FFFFFF;" version="1.1" viewBox="0 0 519 591" width="519px" zoomAndPan="magnify"><defs/><g><!--MD5=[99b31deea5d7419a569cd5090bf83263]
cluster System--><g id="cluster_System"><rect fill="none" height="578" rx="2.5" ry="2.5" style="stroke:#181818;stroke-width:1.0;" width="312" x="85" y="7"/><text fill="#000000" font-family="sans-serif" font-size="14" font-weight="bold" lengthAdjust="spacing" textLength="50" x="216" y="23.5332">System</text></g><g id="elem_wuc2"><ellipse cx="241.1002" cy="61.02" fill="#F1F1F1" rx="75.6002" ry="17.52" style="stroke:#181818;stroke-width:0.5;"/><text fill="#000000" font-family="sans-serif" font-size="14" lengthAdjust="spacing" textLength="103" x="186.6002" y="65.5366">Tilslut IoT til hub</text></g><g id="elem_wuc4"><ellipse cx="241.1904" cy="134.9381" fill="#F1F1F1" rx="95.1904" ry="21.4381" style="stroke:#181818;stroke-width:0.5;"/><text fill="#000000" font-family="sans-serif" font-size="14" lengthAdjust="spacing" textLength="150" x="166.1904" y="138.6666">Fjern IoT enhed fra hub</text></g><g id="elem_wuc5"><ellipse cx="240.9267" cy="210.7853" fill="#F1F1F1" rx="84.4267" ry="19.2853" style="stroke:#181818;stroke-width:0.5;"/><text fill="#000000" font-family="sans-serif" font-size="14" lengthAdjust="spacing" textLength="125" x="178.4267" y="214.5139">Sæt timer pr. enhed</text></g><g id="elem_wuc6"><ellipse cx="241.1681" cy="288.2336" fill="#F1F1F1" rx="99.1681" ry="22.2336" style="stroke:#181818;stroke-width:0.5;"/><text fill="#000000" font-family="sans-serif" font-size="14" lengthAdjust="spacing" textLength="159" x="161.6681" y="291.9621">Se overblik for IoT enhed</text></g><g id="elem_wuc7"><ellipse cx="240.7783" cy="375.8557" fill="#F1F1F1" rx="139.7783" ry="30.3557" style="stroke:#181818;stroke-width:0.5;"/><text fill="#000000" font-family="sans-serif" font-size="14" lengthAdjust="spacing" textLength="247" x="117.2783" y="379.5842">Sæt tænd / sluk ud fra forbrugsmønster</text></g><g id="elem_wuc9"><ellipse cx="241.0017" cy="463.0003" fill="#F1F1F1" rx="93.0017" ry="21.0003" style="stroke:#181818;stroke-width:0.5;"/><text fill="#000000" font-family="sans-serif" font-size="14" lengthAdjust="spacing" textLength="145" x="168.5017" y="466.7289">Tilføj hub under bruger</text></g><g id="elem_wuc10"><ellipse cx="240.847" cy="544.1694" fill="#F1F1F1" rx="111.347" ry="24.6694" style="stroke:#181818;stroke-width:0.5;"/><text fill="#000000" font-family="sans-serif" font-size="14" lengthAdjust="spacing" textLength="186" x="147.847" y="547.8979">Få pris overblik for el-selskab</text></g><!--MD5=[979c31051cf8d07bdf927ed864b836ec]
entity cl--><g id="elem_cl"><ellipse cx="23.5" cy="257.5" fill="#F1F1F1" rx="8" ry="8" style="stroke:#181818;stroke-width:0.5;"/><path d="M23.5,265.5 L23.5,292.5 M10.5,273.5 L36.5,273.5 M23.5,292.5 L10.5,307.5 M23.5,292.5 L36.5,307.5 " fill="none" style="stroke:#181818;stroke-width:0.5;"/><text fill="#000000" font-family="sans-serif" font-size="14" lengthAdjust="spacing" textLength="35" x="6" y="323.5332">Klient</text></g><!--MD5=[e2307af040e3f87d22824e7603ca28ec]
entity api--><g id="elem_api"><ellipse cx="476.5" cy="513.5" fill="#F1F1F1" rx="8" ry="8" style="stroke:#181818;stroke-width:0.5;"/><path d="M476.5,521.5 L476.5,548.5 M463.5,529.5 L489.5,529.5 M476.5,548.5 L463.5,563.5 M476.5,548.5 L489.5,563.5 " fill="none" style="stroke:#181818;stroke-width:0.5;"/><text fill="#000000" font-family="sans-serif" font-size="14" lengthAdjust="spacing" textLength="71" x="441" y="579.5332">XPower Api</text></g><!--MD5=[7c0dd979139b9740918e346e8c1a7d60]
entity hub--><g id="elem_hub"><ellipse cx="476.5" cy="219.5" fill="#F1F1F1" rx="8" ry="8" style="stroke:#181818;stroke-width:0.5;"/><path d="M476.5,227.5 L476.5,254.5 M463.5,235.5 L489.5,235.5 M476.5,254.5 L463.5,269.5 M476.5,254.5 L489.5,269.5 " fill="none" style="stroke:#181818;stroke-width:0.5;"/><text fill="#000000" font-family="sans-serif" font-size="14" lengthAdjust="spacing" textLength="25" x="464" y="285.5332">Hub</text></g><!--MD5=[63bf1a1eeb78e006cdb305a4692e64ef]
link cl to wuc2--><g id="link_cl_wuc2"><path d="M23.92,248.9 C25.51,205.28 35.08,135.66 77,96 C99.16,75.03 130.71,65.4 160.15,61.32 " fill="none" id="cl-to-wuc2" style="stroke:#181818;stroke-width:1.0;"/><polygon fill="#181818" points="165.24,60.67,155.8003,57.8607,160.2815,61.313,156.8292,65.7942,165.24,60.67" style="stroke:#181818;stroke-width:1.0;"/></g><!--MD5=[d6911184a3d8e2932033becfca6fa557]
link cl to wuc4--><g id="link_cl_wuc4"><path d="M33.19,248.73 C40.7,223.79 54.09,192.8 77,174 C96.32,158.15 121.03,148.54 145.33,142.78 " fill="none" id="cl-to-wuc4" style="stroke:#181818;stroke-width:1.0;"/><polygon fill="#181818" points="150.51,141.61,140.8459,139.7114,145.6352,142.7218,142.6248,147.5111,150.51,141.61" style="stroke:#181818;stroke-width:1.0;"/></g><!--MD5=[b04817a6e4b21b3832931c0c2c03f9e0]
link cl to wuc5--><g id="link_cl_wuc5"><path d="M41.25,272.26 C51,263.9 63.92,254.11 77,248 C103.48,235.63 134.36,227.26 162.07,221.67 " fill="none" id="cl-to-wuc5" style="stroke:#181818;stroke-width:1.0;"/><polygon fill="#181818" points="167.21,220.65,157.6113,218.4444,162.3022,221.6059,159.1407,226.2968,167.21,220.65" style="stroke:#181818;stroke-width:1.0;"/></g><!--MD5=[237111e04d0c3374a9334320a2950574]
link cl to wuc6--><g id="link_cl_wuc6"><path d="M41.05,288 C61.91,288 99.5,288 136.44,288 " fill="none" id="cl-to-wuc6" style="stroke:#181818;stroke-width:1.0;"/><polygon fill="#181818" points="141.88,288,132.88,284,136.88,288,132.88,292,141.88,288" style="stroke:#181818;stroke-width:1.0;"/></g><!--MD5=[716044bef3347b3becf269b5e7d0f9d4]
link cl to wuc7--><g id="link_cl_wuc7"><path d="M41.01,302.61 C50.89,310.73 64.01,320.48 77,327 C96.88,336.99 119.18,345.34 140.74,352.15 " fill="none" id="cl-to-wuc7" style="stroke:#181818;stroke-width:1.0;"/><polygon fill="#181818" points="145.61,353.67,138.2006,347.1815,140.8348,352.1876,135.8287,354.8217,145.61,353.67" style="stroke:#181818;stroke-width:1.0;"/></g><!--MD5=[adbab9d9151c3c40b70fade5c7813640]
link cl to wuc9--><g id="link_cl_wuc9"><path d="M29.59,327.03 C35.66,357.74 48.8,399.34 77,424 C96.2,440.79 121.36,450.66 146.15,456.37 " fill="none" id="cl-to-wuc9" style="stroke:#181818;stroke-width:1.0;"/><polygon fill="#181818" points="151.1,457.46,143.1693,451.6201,146.2167,456.386,141.4509,459.4334,151.1,457.46" style="stroke:#181818;stroke-width:1.0;"/></g><!--MD5=[bf0f7b19c1b3f76250232923b4edd70b]
link cl to wuc10--><g id="link_cl_wuc10"><path d="M29.34,327.17 C36.86,381.72 53.03,476.63 77,501 C92.11,516.35 112,526.43 132.68,533 " fill="none" id="cl-to-wuc10" style="stroke:#181818;stroke-width:1.0;"/><polygon fill="#181818" points="137.67,534.52,130.2253,528.072,132.8868,533.0636,127.8951,535.7251,137.67,534.52" style="stroke:#181818;stroke-width:1.0;"/></g><!--MD5=[fd2ab96d1a2e4a623bd9bd64754f9395]
link wuc10 to api--><g id="link_wuc10_api"><path d="M352.6,544 C384.66,544 417.34,544 440.94,544 " fill="none" id="wuc10-api" style="stroke:#181818;stroke-width:1.0;"/></g><!--MD5=[6afdc88f53923bb764f51da5e5f1284b]
link wuc2 to hub--><g id="link_wuc2_hub"><path d="M316.35,62.72 C346.59,66.8 380.17,76.07 405,96 C440.65,124.63 459.01,175.3 467.92,210.67 " fill="none" id="wuc2-hub" style="stroke:#181818;stroke-width:1.0;"/></g><!--MD5=[24402709176f9c1e8502bb9f0c9281d3]
link wuc4 to hub--><g id="link_wuc4_hub"><path d="M325.16,145.14 C351.93,150.9 380.88,159.91 405,174 C429.4,188.26 450.38,213.61 462.97,231.09 " fill="none" id="wuc4-hub" style="stroke:#181818;stroke-width:1.0;"/></g><!--MD5=[e315ed780b57737dec09da2c7d86ab56]
link wuc5 to hub--><g id="link_wuc5_hub"><path d="M309.85,222.33 C363.71,231.33 434.52,243.16 462.92,247.9 " fill="none" id="wuc5-hub" style="stroke:#181818;stroke-width:1.0;"/></g><!--MD5=[f984f64664ce6d7d73a7a0291485021c]
link wuc6 to hub--><g id="link_wuc6_hub"><path d="M321.38,275.08 C373.2,266.65 436.02,256.43 462.61,252.1 " fill="none" id="wuc6-hub" style="stroke:#181818;stroke-width:1.0;"/></g><!--MD5=[5527aa804c0a6af0537ebbd31f1d4188]
link wuc7 to hub--><g id="link_wuc7_hub"><path d="M342.65,354.97 C364.18,347.99 386.11,338.86 405,327 C429.1,311.87 450.15,286.33 462.84,268.85 " fill="none" id="wuc7-hub" style="stroke:#181818;stroke-width:1.0;"/></g><!--MD5=[d56c0ddf15da47657a4083308bcb6f9e]
link wuc9 to hub--><g id="link_wuc9_hub"><path d="M330.72,457.25 C357.07,451.73 384.37,441.74 405,424 C445.03,389.57 462.63,329.04 470.16,289.22 " fill="none" id="wuc9-hub" style="stroke:#181818;stroke-width:1.0;"/></g><!--MD5=[9d0eb1d45a5eb9d6c66b5a5d08c771a2]
@startuml Use extra case
left to right direction
skinparam packageStyle rectangle

:Klient: as cl
:XPower Api: as api
:Hub: as hub

rectangle System {
    usecase "Tilslut IoT til hub" as wuc2
    usecase "Fjern IoT enhed fra hub" as wuc4
    usecase "Sæt timer pr. enhed" as wuc5
    usecase "Se overblik for IoT enhed" as wuc6
    usecase "Sæt tænd / sluk ud fra forbrugsmønster" as wuc7
    usecase "Tilføj hub under bruger" as wuc9
    usecase "Få pris overblik for el-selskab" as wuc10
}

cl - -> wuc2
cl - -> wuc4
cl - -> wuc5
cl - -> wuc6
cl - -> wuc7
cl - -> wuc9
cl - -> wuc10

wuc10 - - api

wuc2 - - hub
wuc4 - - hub
wuc5 - - hub
wuc6 - - hub
wuc7 - - hub
wuc9 - - hub

@enduml

PlantUML version 1.2022.7(Mon Aug 22 19:01:30 CEST 2022)
(GPL source distribution)
Java Runtime: Java(TM) SE Runtime Environment
JVM: Java HotSpot(TM) 64-Bit Server VM
Default Encoding: Cp1252
Language: en
Country: US
--></g></svg>