<?xml version="1.0" encoding="UTF-8" standalone="no"?><svg xmlns="http://www.w3.org/2000/svg" xmlns:xlink="http://www.w3.org/1999/xlink" contentStyleType="text/css" height="357px" preserveAspectRatio="none" style="width:574px;height:357px;background:#FFFFFF;" version="1.1" viewBox="0 0 574 357" width="574px" zoomAndPan="magnify"><defs/><g><!--MD5=[99b31deea5d7419a569cd5090bf83263]
cluster System--><g id="cluster_System"><rect fill="none" height="344" rx="2.5" ry="2.5" style="stroke:#181818;stroke-width:1.0;" width="312" x="88" y="7"/><text fill="#000000" font-family="sans-serif" font-size="14" font-weight="bold" lengthAdjust="spacing" textLength="50" x="219" y="23.5332">System</text></g><g id="elem_wuc1"><ellipse cx="244.1965" cy="64.2393" fill="#F1F1F1" rx="91.6965" ry="20.7393" style="stroke:#181818;stroke-width:0.5;"/><text fill="#000000" font-family="sans-serif" font-size="14" lengthAdjust="spacing" textLength="142" x="173.1965" y="67.9678">Tænd / sluk IoT enhed</text></g><g id="elem_wuc2"><ellipse cx="243.9267" cy="138.7853" fill="#F1F1F1" rx="84.4267" ry="19.2853" style="stroke:#181818;stroke-width:0.5;"/><text fill="#000000" font-family="sans-serif" font-size="14" lengthAdjust="spacing" textLength="125" x="181.4267" y="142.5139">Sæt timer pr. enhed</text></g><g id="elem_wuc3"><ellipse cx="244.1681" cy="216.2336" fill="#F1F1F1" rx="99.1681" ry="22.2336" style="stroke:#181818;stroke-width:0.5;"/><text fill="#000000" font-family="sans-serif" font-size="14" lengthAdjust="spacing" textLength="159" x="164.6681" y="219.9621">Se overblik for IoT enhed</text></g><g id="elem_wuc4"><ellipse cx="243.7783" cy="303.8557" fill="#F1F1F1" rx="139.7783" ry="30.3557" style="stroke:#181818;stroke-width:0.5;"/><text fill="#000000" font-family="sans-serif" font-size="14" lengthAdjust="spacing" textLength="247" x="120.2783" y="307.5842">Sæt tænd / sluk ud fra forbrugsmønster</text></g><!--MD5=[979c31051cf8d07bdf927ed864b836ec]
entity cl--><g id="elem_cl"><ellipse cx="23.5" cy="156.5" fill="#F1F1F1" rx="8" ry="8" style="stroke:#181818;stroke-width:0.5;"/><path d="M23.5,164.5 L23.5,191.5 M10.5,172.5 L36.5,172.5 M23.5,191.5 L10.5,206.5 M23.5,191.5 L36.5,206.5 " fill="none" style="stroke:#181818;stroke-width:0.5;"/><text fill="#000000" font-family="sans-serif" font-size="14" lengthAdjust="spacing" textLength="35" x="6" y="222.5332">Klient</text></g><!--MD5=[1c4b8bd9ff4ef10665559e35a9e12a83]
entity handler--><g id="elem_handler"><ellipse cx="530.5" cy="147.5" fill="#F1F1F1" rx="8" ry="8" style="stroke:#181818;stroke-width:0.5;"/><path d="M530.5,155.5 L530.5,182.5 M517.5,163.5 L543.5,163.5 M530.5,182.5 L517.5,197.5 M530.5,182.5 L543.5,197.5 " fill="none" style="stroke:#181818;stroke-width:0.5;"/><text fill="#000000" font-family="sans-serif" font-size="14" lengthAdjust="spacing" textLength="73" x="494" y="213.5332">IoT Handler</text></g><!--MD5=[c2cb498c6c36c174602f09b39a00b94c]
link cl to wuc1--><g id="link_cl_wuc1"><path d="M41.11,149.06 C50.29,132.27 63.25,113.72 80,102 C101.42,87 127.93,77.85 153.3,72.3 " fill="none" id="cl-to-wuc1" style="stroke:#181818;stroke-width:1.0;"/><polygon fill="#181818" points="158.36,71.23,148.729,69.1699,153.4673,72.2601,150.3771,76.9983,158.36,71.23" style="stroke:#181818;stroke-width:1.0;"/></g><!--MD5=[63bf1a1eeb78e006cdb305a4692e64ef]
link cl to wuc2--><g id="link_cl_wuc2"><path d="M41.06,180.16 C49.84,176.73 60.88,172.74 71,170 C101.73,161.68 136.17,154.97 166.11,149.95 " fill="none" id="cl-to-wuc2" style="stroke:#181818;stroke-width:1.0;"/><polygon fill="#181818" points="171.26,149.1,161.7283,146.6206,166.3269,149.915,163.0324,154.5136,171.26,149.1" style="stroke:#181818;stroke-width:1.0;"/></g><!--MD5=[12d2cb071791fb2a9ad66c8500734741]
link cl to wuc3--><g id="link_cl_wuc3"><path d="M41.28,189.23 C65.39,192.43 111.54,198.55 153.63,204.14 " fill="none" id="cl-to-wuc3" style="stroke:#181818;stroke-width:1.0;"/><polygon fill="#181818" points="158.74,204.82,150.3437,199.672,153.7834,204.1629,149.2924,207.6026,158.74,204.82" style="stroke:#181818;stroke-width:1.0;"/></g><!--MD5=[d6911184a3d8e2932033becfca6fa557]
link cl to wuc4--><g id="link_cl_wuc4"><path d="M41.02,214.22 C50.78,228.22 64.29,244.5 80,255 C96.76,266.2 116.16,274.91 135.61,281.66 " fill="none" id="cl-to-wuc4" style="stroke:#181818;stroke-width:1.0;"/><polygon fill="#181818" points="140.55,283.34,133.3069,276.6664,135.8138,281.7374,130.7427,284.2443,140.55,283.34" style="stroke:#181818;stroke-width:1.0;"/></g><!--MD5=[6c76f3709c6b840b1e363066696273c7]
link wuc1 to handler--><g id="link_wuc1_handler"><path d="M318.83,75.84 C347.34,81.79 379.83,90.29 408,102 C438.79,114.8 470.63,135.02 493.99,151.39 " fill="none" id="wuc1-handler" style="stroke:#181818;stroke-width:1.0;"/><text fill="#000000" font-family="sans-serif" font-size="13" lengthAdjust="spacing" textLength="46" x="417" y="103.4951">extends</text></g><!--MD5=[dbccd24edf091b5266b8e1774fdc8120]
link wuc2 to handler--><g id="link_wuc2_handler"><path d="M317.16,148.89 C373.62,156.63 449.73,167.07 493.82,173.11 " fill="none" id="wuc2-handler" style="stroke:#181818;stroke-width:1.0;"/><text fill="#000000" font-family="sans-serif" font-size="13" lengthAdjust="spacing" textLength="46" x="417" y="160.4951">extends</text></g><!--MD5=[ea5d71037a5bf982ad9dc6cb32a39ce1]
link wuc3 to handler--><g id="link_wuc3_handler"><path d="M342.71,218.17 C380.94,217.18 424.9,213.77 464,205 C473.96,202.77 484.35,199.14 493.84,195.27 " fill="none" id="wuc3-handler" style="stroke:#181818;stroke-width:1.0;"/><text fill="#000000" font-family="sans-serif" font-size="13" lengthAdjust="spacing" textLength="46" x="417" y="201.4951">extends</text></g><!--MD5=[8dba59adc17d0a0a5c920a7b999cdb15]
link wuc4 to handler--><g id="link_wuc4_handler"><path d="M348.72,283.67 C386.57,273.61 428.71,259.17 464,239 C474.52,232.99 484.71,224.97 493.8,216.74 " fill="none" id="wuc4-handler" style="stroke:#181818;stroke-width:1.0;"/><text fill="#000000" font-family="sans-serif" font-size="13" lengthAdjust="spacing" textLength="46" x="417" y="235.4951">extends</text></g><!--MD5=[17571672380e0db3a4948058db6bde3b]
@startuml SystemExtension
left to right direction
skinparam packageStyle rectangle

:Klient: as cl
:IoT Handler: as handler

rectangle System {
    usecase "Tænd / sluk IoT enhed" as wuc1
    usecase "Sæt timer pr. enhed" as wuc2
    usecase "Se overblik for IoT enhed" as wuc3
    usecase "Sæt tænd / sluk ud fra forbrugsmønster" as wuc4
}

cl - -> wuc1
cl - -> wuc2
cl - -> wuc3
cl - -> wuc4

wuc1 - - handler : extends
wuc2 - - handler : extends
wuc3 - - handler : extends
wuc4 - - handler : extends


@enduml

PlantUML version 1.2022.7(Mon Aug 22 19:01:30 CEST 2022)
(GPL source distribution)
Java Runtime: Java(TM) SE Runtime Environment
JVM: Java HotSpot(TM) 64-Bit Server VM
Default Encoding: Cp1252
Language: en
Country: US
--></g></svg>