<?xml version="1.0" encoding="UTF-8" standalone="no"?><svg xmlns="http://www.w3.org/2000/svg" xmlns:xlink="http://www.w3.org/1999/xlink" contentStyleType="text/css" height="898px" preserveAspectRatio="none" style="width:828px;height:898px;background:#FFFFFF;" version="1.1" viewBox="0 0 828 898" width="828px" zoomAndPan="magnify"><defs/><g><rect fill="none" height="27.6094" id="_title" style="stroke:none;stroke-width:1.0;" width="203" x="305.75" y="5"/><text fill="#000000" font-family="sans-serif" font-size="14" font-weight="bold" lengthAdjust="spacing" textLength="193" x="310.75" y="24.5332">Webklient to Hub Bluetooth</text><ellipse cx="167" cy="54.6094" fill="#222222" rx="10" ry="10" style="stroke:none;stroke-width:1.0;"/><rect fill="#F1F1F1" height="35.0938" rx="12.5" ry="12.5" style="stroke:#181818;stroke-width:0.5;" width="112" x="111" y="105.6094"/><text fill="#000000" font-family="sans-serif" font-size="12" lengthAdjust="spacing" textLength="92" x="121" y="128.0664">Click on add hub</text><rect fill="#F1F1F1" height="35.0938" rx="12.5" ry="12.5" style="stroke:#181818;stroke-width:0.5;" width="116" x="109" y="181.6094"/><text fill="#000000" font-family="sans-serif" font-size="12" lengthAdjust="spacing" textLength="96" x="119" y="204.0664">Show found hubs</text><rect fill="#F1F1F1" height="35.0938" rx="12.5" ry="12.5" style="stroke:#181818;stroke-width:0.5;" width="129" x="102.5" y="257.6094"/><text fill="#000000" font-family="sans-serif" font-size="12" lengthAdjust="spacing" textLength="109" x="112.5" y="280.0664">Select choosen hub</text><rect fill="#F1F1F1" height="35.0938" rx="12.5" ry="12.5" style="stroke:#181818;stroke-width:0.5;" width="158" x="88" y="333.6094"/><text fill="#000000" font-family="sans-serif" font-size="12" lengthAdjust="spacing" textLength="138" x="98" y="356.0664">Start connectin to the hub</text><g id="elem_#11"><polygon fill="#F1F1F1" points="167,409.6094,179,421.6094,167,433.6094,155,421.6094,167,409.6094" style="stroke:#181818;stroke-width:0.5;"/></g><rect fill="#F1F1F1" height="35.0938" rx="12.5" ry="12.5" style="stroke:#181818;stroke-width:0.5;" width="284" x="7" y="488.6094"/><text fill="#000000" font-family="sans-serif" font-size="12" lengthAdjust="spacing" textLength="264" x="17" y="511.0664">Show not being able to connect to hub message</text><rect fill="#F1F1F1" height="35.0938" rx="12.5" ry="12.5" style="stroke:#181818;stroke-width:0.5;" width="307" x="311.5" y="488.6094"/><text fill="#000000" font-family="sans-serif" font-size="12" lengthAdjust="spacing" textLength="287" x="321.5" y="511.0664">Ask about ssid and passphrase for the local network</text><rect fill="#F1F1F1" height="35.0938" rx="12.5" ry="12.5" style="stroke:#181818;stroke-width:0.5;" width="224" x="353" y="564.6094"/><text fill="#000000" font-family="sans-serif" font-size="12" lengthAdjust="spacing" textLength="204" x="363" y="587.0664">Send credentials to connected device</text><rect fill="#F1F1F1" height="35.0938" rx="12.5" ry="12.5" style="stroke:#181818;stroke-width:0.5;" width="247" x="341.5" y="640.6094"/><text fill="#000000" font-family="sans-serif" font-size="12" lengthAdjust="spacing" textLength="227" x="351.5" y="663.0664">Try connection to network with credentials</text><g id="elem_#22"><polygon fill="#F1F1F1" points="465,716.6094,477,728.6094,465,740.6094,453,728.6094,465,716.6094" style="stroke:#181818;stroke-width:0.5;"/></g><rect fill="#F1F1F1" height="35.0938" rx="12.5" ry="12.5" style="stroke:#181818;stroke-width:0.5;" width="360" x="272" y="781.6094"/><text fill="#000000" font-family="sans-serif" font-size="12" lengthAdjust="spacing" textLength="340" x="282" y="804.0664">Show not being able to connect to network with error message</text><rect fill="#F1F1F1" height="35.0938" rx="12.5" ry="12.5" style="stroke:#181818;stroke-width:0.5;" width="131" x="652.5" y="781.6094"/><text fill="#000000" font-family="sans-serif" font-size="12" lengthAdjust="spacing" textLength="111" x="662.5" y="804.0664">Get local IP address</text><rect fill="#F1F1F1" height="35.0938" rx="12.5" ry="12.5" style="stroke:#181818;stroke-width:0.5;" width="209" x="613.5" y="857.6094"/><text fill="#000000" font-family="sans-serif" font-size="12" lengthAdjust="spacing" textLength="189" x="623.5" y="880.0664">Send local IP address to webklient</text><!--MD5=[eb932e44a73534bfb693613f4a68603f]
link start to Click on add hub--><g id="link_start_Click on add hub"><path d="M167,64.8594 C167,74.0394 167,88.4494 167,100.5094 " fill="none" id="start-to-Click on add hub" style="stroke:#181818;stroke-width:1.0;"/><polygon fill="#181818" points="167,105.5194,171,96.5194,167,100.5194,163,96.5194,167,105.5194" style="stroke:#181818;stroke-width:1.0;"/></g><!--MD5=[c1c0d5e781f6181965e021e8921cfff1]
link Click on add hub to Show found hubs--><g id="link_Click on add hub_Show found hubs"><path d="M167,140.8994 C167,151.3994 167,165.0394 167,176.3594 " fill="none" id="Click on add hub-to-Show found hubs" style="stroke:#181818;stroke-width:1.0;"/><polygon fill="#181818" points="167,181.3794,171,172.3794,167,176.3794,163,172.3794,167,181.3794" style="stroke:#181818;stroke-width:1.0;"/></g><!--MD5=[23556356ad3b12d793db098289f4185a]
link Show found hubs to Select choosen hub--><g id="link_Show found hubs_Select choosen hub"><path d="M167,216.8994 C167,227.3994 167,241.0394 167,252.3594 " fill="none" id="Show found hubs-to-Select choosen hub" style="stroke:#181818;stroke-width:1.0;"/><polygon fill="#181818" points="167,257.3794,171,248.3794,167,252.3794,163,248.3794,167,257.3794" style="stroke:#181818;stroke-width:1.0;"/></g><!--MD5=[e2a156304ad765f0f5cd6cda70b28523]
link Select choosen hub to Start connectin to the hub--><g id="link_Select choosen hub_Start connectin to the hub"><path d="M167,292.8994 C167,303.3994 167,317.0394 167,328.3594 " fill="none" id="Select choosen hub-to-Start connectin to the hub" style="stroke:#181818;stroke-width:1.0;"/><polygon fill="#181818" points="167,333.3794,171,324.3794,167,328.3794,163,324.3794,167,333.3794" style="stroke:#181818;stroke-width:1.0;"/></g><!--MD5=[edf9d778f6b0247e6f2558edff78d582]
link Start connectin to the hub to #11--><g id="link_Start connectin to the hub_#11"><path d="M167,368.6894 C167,379.4794 167,393.4894 167,404.2394 " fill="none" id="Start connectin to the hub-to-#11" style="stroke:#181818;stroke-width:1.0;"/><polygon fill="#181818" points="167,409.5294,171,400.5294,167,404.5294,163,400.5294,167,409.5294" style="stroke:#181818;stroke-width:1.0;"/><text fill="#000000" font-family="sans-serif" font-size="11" lengthAdjust="spacing" textLength="113" x="33.8719" y="401.4781">Couldn't connect to hub</text></g><!--MD5=[fbe8fd99b456b13af29a1b03103b2172]
link #11 to Show not being able to connect to hub message--><g id="link_#11_Show not being able to connect to hub message"><path d="M165,431.7494 C162.3,444.1494 157.39,466.6594 153.72,483.4894 " fill="none" id="#11-to-Show not being able to connect to hub message" style="stroke:#181818;stroke-width:1.0;"/><polygon fill="#181818" points="152.62,488.5194,158.4329,480.5689,153.6774,483.6325,150.6138,478.877,152.62,488.5194" style="stroke:#181818;stroke-width:1.0;"/><text fill="#000000" font-family="sans-serif" font-size="11" lengthAdjust="spacing" textLength="19" x="162" y="466.0283">true</text></g><!--MD5=[7cd49f6ea42f97b4842a78e1bf1ef2a6]
link #11 to Ask about ssid and passphrase for the local network--><g id="link_#11_Ask about ssid and passphrase for the local network"><path d="M175.92,425.0794 C208.9,434.2094 325.88,466.5994 400.54,487.2594 " fill="none" id="#11-to-Ask about ssid and passphrase for the local network" style="stroke:#181818;stroke-width:1.0;"/><polygon fill="#181818" points="405.39,488.6094,397.7784,482.3593,400.5702,487.2793,395.6502,490.0711,405.39,488.6094" style="stroke:#181818;stroke-width:1.0;"/></g><!--MD5=[61d934f14634e8da1be43633ee9e610c]
link Ask about ssid and passphrase for the local network to Send credentials to connected device--><g id="link_Ask about ssid and passphrase for the local network_Send credentials to connected device"><path d="M465,523.8994 C465,534.3994 465,548.0394 465,559.3594 " fill="none" id="Ask about ssid and passphrase for the local network-to-Send credentials to connected device" style="stroke:#181818;stroke-width:1.0;"/><polygon fill="#181818" points="465,564.3794,469,555.3794,465,559.3794,461,555.3794,465,564.3794" style="stroke:#181818;stroke-width:1.0;"/></g><!--MD5=[c09885f05a8a458c6061bbe5015aa42a]
link Send credentials to connected device to Try connection to network with credentials--><g id="link_Send credentials to connected device_Try connection to network with credentials"><path d="M465,599.8994 C465,610.3994 465,624.0394 465,635.3594 " fill="none" id="Send credentials to connected device-to-Try connection to network with credentials" style="stroke:#181818;stroke-width:1.0;"/><polygon fill="#181818" points="465,640.3794,469,631.3794,465,635.3794,461,631.3794,465,640.3794" style="stroke:#181818;stroke-width:1.0;"/></g><!--MD5=[73349ac555abfca70a9f756f9c2d42b5]
link Try connection to network with credentials to #22--><g id="link_Try connection to network with credentials_#22"><path d="M465,675.6894 C465,686.4794 465,700.4894 465,711.2394 " fill="none" id="Try connection to network with credentials-to-#22" style="stroke:#181818;stroke-width:1.0;"/><polygon fill="#181818" points="465,716.5294,469,707.5294,465,711.5294,461,707.5294,465,716.5294" style="stroke:#181818;stroke-width:1.0;"/><text fill="#000000" font-family="sans-serif" font-size="11" lengthAdjust="spacing" textLength="135" x="310.1719" y="709.6132">Couldn't connect to network</text></g><!--MD5=[8a1e0b8cbdfc32095240e6c6a642f7a5]
link #22 to Show not being able to connect to network with error message--><g id="link_#22_Show not being able to connect to network with error message"><path d="M463.19,739.1294 C461.37,748.7194 458.5,763.8394 456.13,776.3694 " fill="none" id="#22-to-Show not being able to connect to network with error message" style="stroke:#181818;stroke-width:1.0;"/><polygon fill="#181818" points="455.14,781.5594,460.7415,773.4585,456.0683,776.6463,452.8806,771.9732,455.14,781.5594" style="stroke:#181818;stroke-width:1.0;"/></g><!--MD5=[7e25b56c089a1e7ffebe5465af4a9856]
link #22 to Get local IP address--><g id="link_#22_Get local IP address"><path d="M473.71,731.9694 C501.39,739.4594 589.19,763.2294 651.58,780.1294 " fill="none" id="#22-to-Get local IP address" style="stroke:#181818;stroke-width:1.0;"/><polygon fill="#181818" points="656.78,781.5394,649.1294,775.3372,651.9519,780.2395,647.0496,783.0621,656.78,781.5394" style="stroke:#181818;stroke-width:1.0;"/></g><!--MD5=[9a98c93c2450482756687470dbd95c6e]
link Get local IP address to Send local IP address to webklient--><g id="link_Get local IP address_Send local IP address to webklient"><path d="M718,816.8994 C718,827.3994 718,841.0394 718,852.3594 " fill="none" id="Get local IP address-to-Send local IP address to webklient" style="stroke:#181818;stroke-width:1.0;"/><polygon fill="#181818" points="718,857.3794,722,848.3794,718,852.3794,714,848.3794,718,857.3794" style="stroke:#181818;stroke-width:1.0;"/></g><!--MD5=[84153fe8f0a7d582a6b35ec52b3648b5]
@startuml Hub Flowchart diagram
title Webklient to Hub Bluetooth

(*) - -> "Click on add hub"
- -> "Show found hubs"
- -> "Select choosen hub"
- -> "Start connectin to the hub"

if "Couldn't connect to hub" then
  - ->[true] "Show not being able to connect to hub message"
else 
endif

- ->"Ask about ssid and passphrase for the local network"
- ->"Send credentials to connected device"
- ->"Try connection to network with credentials"

if "Couldn't connect to network" then
 - ->"Show not being able to connect to network with error message"
else
endif

- ->"Get local IP address"
- ->"Send local IP address to webklient"

@enduml

PlantUML version 1.2022.7(Mon Aug 22 19:01:30 CEST 2022)
(GPL source distribution)
Java Runtime: Java(TM) SE Runtime Environment
JVM: Java HotSpot(TM) 64-Bit Server VM
Default Encoding: Cp1252
Language: en
Country: US
--></g></svg>